<?xml version="1.0" encoding="UTF-8" standalone="no"?>
<!-- Created with Inkscape (http://www.inkscape.org/) -->

<svg
   width="1024"
   height="1024"
   viewBox="0 0 270.93333 270.93334"
   version="1.1"
   id="svg5"
   inkscape:version="1.1.1 (c3084ef, 2021-09-22)"
   sodipodi:docname="logo2.svg"
   inkscape:export-filename="/Users/mike/projects/behmor_roast/logo2.png"
   inkscape:export-xdpi="96"
   inkscape:export-ydpi="96"
   xmlns:inkscape="http://www.inkscape.org/namespaces/inkscape"
   xmlns:sodipodi="http://sodipodi.sourceforge.net/DTD/sodipodi-0.dtd"
   xmlns="http://www.w3.org/2000/svg"
   xmlns:svg="http://www.w3.org/2000/svg">
  <sodipodi:namedview
     id="namedview7"
     pagecolor="#ffffff"
     bordercolor="#666666"
     borderopacity="1.0"
     inkscape:pageshadow="2"
     inkscape:pageopacity="0.0"
     inkscape:pagecheckerboard="0"
     inkscape:document-units="mm"
     showgrid="false"
     units="px"
     width="1024px"
     inkscape:snap-global="false"
     inkscape:zoom="0.1424259"
     inkscape:cx="-122.87091"
     inkscape:cy="3.5105974"
     inkscape:window-width="1312"
     inkscape:window-height="847"
     inkscape:window-x="0"
     inkscape:window-y="25"
     inkscape:window-maximized="0"
     inkscape:current-layer="layer1" />
  <defs
     id="defs2" />
  <g
     inkscape:label="Layer 1"
     inkscape:groupmode="layer"
     id="layer1">
    <rect
       style="fill:#ffffff;fill-opacity:1;stroke:none;stroke-width:5.29167;stroke-miterlimit:4;stroke-dasharray:none;stroke-opacity:1"
       id="rect61223"
       width="363.00833"
       height="365.125"
       x="-35.771202"
       y="-18.678671"
       inkscape:export-filename="/Users/mike/projects/behmor_roast/logo2.png"
       inkscape:export-xdpi="96"
       inkscape:export-ydpi="96" />
    <rect
       style="fill:#000000;fill-opacity:0;stroke:none;stroke-width:5.29167;stroke-miterlimit:4;stroke-dasharray:none;stroke-opacity:1"
       id="rect57254"
       width="339.72501"
       height="330.19998"
       x="-28.574999"
       y="-28.574999" />
    <circle
       style="fill:#ffffff;fill-opacity:1;stroke-width:2"
       id="path34230"
       cx="134.87987"
       cy="135.33864"
       r="135.46666" />
    <g
       id="path42786"
       transform="matrix(1.3589405,0,0,1.346711,-45.955529,-99.01554)"
       style="fill:#4b413a;fill-opacity:1;stroke:#4b413a;stroke-width:8.13119;stroke-miterlimit:4;stroke-dasharray:none;stroke-opacity:1">
      <path
         style="color:#000000;fill:#4b413a;fill-opacity:1;stroke:#4b413a;stroke-width:8.13119;stroke-miterlimit:4;stroke-dasharray:none;stroke-opacity:1"
         d="m 131.79102,85.597656 c -5.53662,1.019641 -10.99458,2.635145 -16.0135,5.218885 -11.03711,5.601196 -19.982419,14.688349 -26.745415,24.949169 -9.494535,14.45099 -14.911629,31.34228 -16.804119,48.46574 -2.052054,19.05869 0.193046,38.73615 7.598769,56.48536 4.658345,11.06161 11.381508,21.46623 20.635335,29.2284 6.22385,5.24234 13.58886,9.17058 21.50388,11.12373 0.49414,-0.0133 1.36679,0.69963 1.56394,0.119 5.30667,-14.44632 8.639,-29.77711 8.27776,-45.22532 -0.17981,-14.29367 -3.12756,-28.33242 -5.24173,-42.41654 -1.64853,-11.13584 -2.65552,-22.37429 -2.43239,-33.65997 0.23793,-16.25836 2.74317,-32.43127 6.83143,-48.139175 0.55106,-2.112203 1.11433,-4.221644 1.66979,-6.332873 -0.28125,0.0612 -0.5625,0.122396 -0.84375,0.183594 z m 12.08398,0.859375 c -0.77869,0.17535 -0.65068,1.185472 -0.98595,1.753259 -5.01546,14.0489 -8.05206,28.93283 -7.69324,43.89627 0.28579,17.90802 4.87309,35.34537 6.64062,53.09932 1.25738,12.09412 1.46426,24.34658 0.31165,36.46781 -1.10216,12.12208 -3.37727,24.10476 -6.50091,35.89145 -0.4155,1.56192 -0.82567,3.12524 -1.23506,4.68877 9.20614,-1.3935 18.05974,-5.0748 25.48018,-10.70808 11.79066,-8.82514 20.44124,-21.29851 26.2249,-34.73333 8.60871,-20.02438 11.22079,-42.46588 8.13528,-64.00315 -2.16838,-14.80663 -7.22075,-29.34439 -15.72786,-41.72772 -6.2645,-9.05872 -14.66341,-16.855241 -24.79182,-21.366887 -3.13729,-1.403545 -6.412,-2.522105 -9.76209,-3.281149 z"
         id="path52672" />
      <path
         style="color:#000000;fill:#4b413a;fill-opacity:1;stroke:#4b413a;stroke-width:8.13119;stroke-miterlimit:4;stroke-dasharray:none;stroke-opacity:1"
         d="M 130.19727,78.269531 C 110.87961,78.964158 92.806954,96.536624 82.769531,111.63868 l -0.002,0.004 -0.0039,0.004 c -10.248343,15.59818 -15.9852,33.62012 -17.990194,51.76152 l -0.002,0.01 v 0.01 c -2.173202,20.18388 0.175974,41.10767 8.132813,60.17774 l 0.0059,0.0117 0.0039,0.01 c 5.005352,11.88561 12.311326,23.32251 22.716797,32.05469 0.0025,0.002 0.0053,0.004 0.0078,0.006 0.0014,0.001 0.0025,0.003 0.0039,0.004 8.285493,5.94491 16.562653,10.6755 24.990233,12.77343 -0.039,-0.005 -0.18086,-0.0216 -0.14843,-0.01 3.55623,1.26879 10.08077,2.01014 15.05078,1.21484 10.30806,-1.64949 20.42014,-5.72491 28.87109,-12.13476 13.08529,-9.80095 22.41182,-23.38425 28.59961,-37.75782 l 0.002,-0.002 c 9.19433,-21.38656 11.94147,-45.17985 8.66797,-68.0293 v -0.0117 l -0.002,-0.0117 c -2.30842,-15.76287 -7.6932,-31.38961 -16.9668,-44.88868 l -0.008,-0.008 -0.006,-0.01 c -6.9011,-9.979266 -16.249,-18.755316 -27.89844,-23.947269 -3.55726,-1.59143 -7.38551,-2.689972 -11.16601,-3.75 -0.56754,-0.159136 -1.14001,-0.315316 -1.72461,-0.390625 -4.53399,-0.584077 -9.32586,-0.616741 -13.70667,-0.459215 z m 18.16406,17.513672 c 0.76331,0.295036 1.55794,0.44152 2.30859,0.777344 l 0.006,0.002 0.006,0.0039 c 8.60247,3.831923 16.04801,10.646093 21.67383,18.781253 7.72858,11.25736 12.44354,24.691 14.47265,38.52539 3.8e-4,0.003 -3.7e-4,0.005 0,0.008 2.89579,20.22271 0.4205,41.30896 -7.60156,59.96875 -5.37632,12.4877 -13.3434,23.84374 -23.82812,31.69141 l -0.0215,0.0156 -0.0195,0.0156 c -3.26635,2.47967 -6.8844,4.51569 -10.70117,6.08984 2.23167,-9.63753 4.05868,-19.38515 4.96094,-29.30859 1.20152,-12.65879 0.9801,-25.38272 -0.31836,-37.89063 -1.8463,-18.54514 -6.33692,-35.7712 -6.60352,-52.47656 v -0.0293 l -0.002,-0.0293 c -0.29033,-12.10708 1.93219,-24.3141 5.66797,-36.144526 z m -26.14258,0.474609 c -3.2881,14.201688 -5.36722,28.767498 -5.58398,43.503908 -0.23203,11.82183 0.82205,23.46914 2.51171,34.88281 l 0.002,0.008 v 0.008 c 2.15748,14.37264 4.99254,28.07196 5.16015,41.39648 v 0.041 l 0.002,0.041 c 0.28176,12.0493 -1.97779,24.19366 -5.71289,35.99805 -4.78744,-1.85744 -9.31117,-4.564 -13.30469,-7.92774 l -0.006,-0.006 -0.006,-0.004 c -8.090143,-6.78607 -14.224228,-16.14649 -18.533203,-26.3711 l -0.002,-0.004 c -6.853027,-16.42732 -8.991045,-34.85705 -7.0603,-52.78906 1.781611,-16.09534 6.875537,-31.84616 15.609375,-45.14258 l 0.0059,-0.008 c 6.209668,-9.41891 14.297608,-17.52244 23.871098,-22.380864 l 0.0195,-0.0098 0.0195,-0.0098 c 0.94468,-0.486321 2.00924,-0.811154 3.00781,-1.226563 z m 5.47852,35.968748 c 1e-4,0.007 0.002,0.0129 0.002,0.0195 3.2e-4,0.0138 -0.002,0.0273 -0.002,0.041 z m 2.93359,131.37305 -0.0606,0.17383 c 0.0191,-0.0519 0.0337,-0.10625 0.0527,-0.15821 0.002,-0.005 0.006,-0.0108 0.008,-0.0156 z"
         id="path52674"
         sodipodi:nodetypes="scccccccccccccsaccccccccccaascccccccccccccccccccccccccccccccccccccccccccccccccc" />
    </g>
    <path
       style="fill:#9bccb0;fill-opacity:1;stroke:none;stroke-width:7.93843;stroke-miterlimit:4;stroke-dasharray:none"
       d="m 149.51532,21.503863 c -14.99006,41.74541 -10.34868,69.315091 -4.80672,102.077287 5.45737,32.26254 10.13193,70.27116 -4.9853,125.97314 16.20961,-3.35771 31.35757,-13.19446 43.92781,-28.23357 16.63701,-19.90439 28.26693,-48.70456 30.26773,-81.33371 2.00077,-32.6293 -6.01902,-62.604591 -20.10137,-84.358727 -11.54552,-17.83532 -26.95588,-29.581613 -44.30215,-34.12442 z"
       id="path67944" />
    <path
       style="fill:#9bccb0;fill-opacity:1;stroke:none;stroke-width:7.93843;stroke-miterlimit:4;stroke-dasharray:none"
       d="M 127.38183,20.735494 C 111.16825,24.091137 96.015477,33.938283 83.44237,48.980613 66.805433,68.885003 55.175487,97.676498 53.174684,130.30564 c -2.000982,32.6295 6.030857,62.61328 20.113219,84.36741 11.545306,17.83532 26.944027,29.58161 44.290267,34.12443 14.99119,-41.74693 10.3489,-69.31431 4.80672,-102.07727 -5.45734,-32.26253 -10.12029,-70.282713 4.99694,-125.984716 z"
       id="path7468" />
    <path
       id="path40610"
       style="fill:#b85544;fill-opacity:1;stroke:none;stroke-width:20;stroke-linecap:butt;stroke-linejoin:miter;stroke-miterlimit:4;stroke-dasharray:none;stroke-opacity:1"
       d="M 444.60547 408.93555 C 427.88262 437.39122 419.66981 464.73988 417.49414 486.75391 C 410.58959 556.61594 412.06237 614.71965 358.62695 619.60352 C 297.3135 625.20742 281.554 539.55421 289.66211 474.24609 C 254.91983 511.82363 223.88806 560.22257 206.83398 620.5625 C 218.20207 693.22595 242.89341 758.68521 276.99414 811.36328 C 320.62994 878.77236 378.83003 923.16818 444.39062 940.33789 C 501.05024 782.55422 483.50346 678.36171 462.55664 554.5332 C 454.97232 509.69644 447.81042 461.89739 444.60547 408.93555 z "
       transform="scale(0.26458333)" />
    <path
       id="path81709"
       style="fill:#b85544;fill-opacity:1;stroke:none;stroke-width:20;stroke-linecap:butt;stroke-linejoin:miter;stroke-miterlimit:4;stroke-dasharray:none;stroke-opacity:1"
       d="M 598.04102 282.34766 C 571.12645 293.84816 547.89007 306.96552 527.83594 321.01758 C 530.47756 369.73658 538.42288 416.78877 546.92969 467.07812 C 567.55597 589.01528 585.22388 732.6701 528.08789 943.19727 C 589.35256 930.50671 646.60567 893.32901 694.11523 836.48828 C 754.17505 764.63319 796.94446 662.09305 807.25195 545.57812 C 788.41462 496.43952 766.09387 436.33881 716.49219 398.35742 C 733.7525 499.27557 628.6019 544.10589 579.23242 496.74414 C 529.86295 449.38243 558.01397 363.11522 598.04102 282.34766 z "
       transform="scale(0.26458333)" />
  </g>
</svg>
