<?xml version="1.0" encoding="UTF-8" standalone="no"?>
<!-- Created with Inkscape (http://www.inkscape.org/) -->

<svg
   width="48"
   height="48"
   viewBox="0 0 12.7 12.7"
   version="1.1"
   id="svg98424"
   sodipodi:docname="2nd_crack.svg"
   inkscape:version="1.1.1 (c3084ef, 2021-09-22)"
   xmlns:inkscape="http://www.inkscape.org/namespaces/inkscape"
   xmlns:sodipodi="http://sodipodi.sourceforge.net/DTD/sodipodi-0.dtd"
   xmlns="http://www.w3.org/2000/svg"
   xmlns:svg="http://www.w3.org/2000/svg">
  <sodipodi:namedview
     id="namedview98426"
     pagecolor="#ffffff"
     bordercolor="#666666"
     borderopacity="1.0"
     inkscape:pageshadow="2"
     inkscape:pageopacity="0.0"
     inkscape:pagecheckerboard="0"
     inkscape:document-units="mm"
     showgrid="false"
     units="px"
     inkscape:snap-global="false"
     inkscape:zoom="6.292592"
     inkscape:cx="16.765746"
     inkscape:cy="33.452034"
     inkscape:window-width="1312"
     inkscape:window-height="847"
     inkscape:window-x="0"
     inkscape:window-y="25"
     inkscape:window-maximized="0"
     inkscape:current-layer="layer1" />
  <defs
     id="defs98421" />
  <g
     inkscape:label="Layer 1"
     inkscape:groupmode="layer"
     id="layer1">
    <path
       id="path105260"
       style="opacity:1;fill:#000000;stroke:none;stroke-width:41.5748"
       d="M 24.619141 0.3828125 C 24.614832 0.42643581 24.609664 0.47005386 24.605469 0.51367188 C 24.576631 0.81384725 24.550134 1.11413 24.527344 1.4140625 C 24.504553 1.7139948 24.485743 2.0147541 24.46875 2.3144531 C 24.451742 2.6141523 24.437229 2.9134155 24.425781 3.2128906 C 24.414329 3.512366 24.406551 3.8120674 24.400391 4.1113281 C 24.39423 4.4105873 24.389806 4.7087566 24.388672 5.0078125 C 24.387543 5.3068676 24.388946 5.6054368 24.392578 5.9042969 C 24.396223 6.2031592 24.401992 6.5021071 24.410156 6.8007812 C 24.41832 7.0994546 24.428972 7.3987676 24.441406 7.6972656 C 24.453841 7.9957652 24.467938 8.2934659 24.484375 8.5917969 C 24.500816 8.8901263 24.518884 9.1881544 24.539062 9.4863281 C 24.549464 9.6399957 24.562728 9.7935781 24.574219 9.9472656 L 27.097656 9.3007812 L 26.861328 14.347656 L 36.320312 10.912109 A 14.369924 23.634744 0 0 0 24.619141 0.3828125 z M 22.701172 0.55273438 A 14.369924 23.634744 0 0 0 11.574219 13.279297 L 22.707031 10.425781 C 22.68537 10.151117 22.665098 9.8769632 22.646484 9.6015625 C 22.62581 9.2954623 22.606678 8.9883863 22.589844 8.6816406 C 22.573025 8.3748942 22.55764 8.0671569 22.544922 7.7597656 C 22.532223 7.4523729 22.521987 7.1459267 22.513672 6.8378906 C 22.505357 6.5298553 22.499722 6.2207902 22.496094 5.9121094 C 22.492476 5.6034278 22.490827 5.2937006 22.492188 4.984375 C 22.493525 4.6750509 22.49733 4.3666103 22.503906 4.0566406 C 22.510483 3.746671 22.521146 3.4356136 22.533203 3.125 C 22.545298 2.8143863 22.560263 2.5046166 22.578125 2.1933594 C 22.596002 1.8821021 22.616704 1.5697131 22.640625 1.2578125 C 22.658616 1.0232282 22.679613 0.78768243 22.701172 0.55273438 z M 22.474609 15.421875 L 10.802734 16.255859 A 14.369924 23.634744 0 0 0 9.9980469 24.013672 A 14.369924 23.634744 0 0 0 10.015625 24.847656 L 10.021484 24.226562 L 25.080078 28.0625 C 25.019404 27.607984 24.959301 27.152991 24.894531 26.697266 C 24.811037 26.109795 24.724917 25.521711 24.636719 24.931641 C 24.54852 24.341569 24.458045 23.749007 24.367188 23.15625 C 24.205448 22.101042 24.041769 21.04003 23.880859 19.976562 L 21.498047 20.429688 L 22.474609 15.421875 z M 38.132812 17.261719 L 25.740234 19.623047 C 25.902871 20.705183 26.068577 21.787446 26.234375 22.869141 C 26.325405 23.46304 26.41687 24.056453 26.505859 24.650391 C 26.594848 25.244328 26.680903 25.839634 26.765625 26.433594 C 26.850347 27.027554 26.933494 27.620875 27.011719 28.214844 C 27.027155 28.33205 27.039647 28.44924 27.054688 28.566406 L 32.130859 29.859375 L 29.123047 33.980469 L 36.445312 36.789062 A 14.369924 23.634744 0 0 0 38.738281 24.013672 A 14.369924 23.634744 0 0 0 38.132812 17.261719 z M 10.8125 31.853516 A 14.369924 23.634744 0 0 0 24.369141 47.648438 A 14.369924 23.634744 0 0 0 24.830078 47.621094 C 24.850752 47.536357 24.874568 47.451962 24.894531 47.367188 C 24.96082 47.085726 25.023188 46.80332 25.082031 46.521484 C 25.140878 46.239645 25.196388 45.958017 25.248047 45.675781 C 25.299705 45.393564 25.347851 45.110769 25.392578 44.828125 C 25.437305 44.545492 25.477573 44.263536 25.515625 43.980469 C 25.553677 43.69742 25.589463 43.414362 25.621094 43.130859 C 25.652728 42.847357 25.681565 42.563241 25.707031 42.279297 C 25.732505 41.995341 25.753878 41.712132 25.773438 41.427734 C 25.793015 41.143325 25.810325 40.857129 25.824219 40.572266 C 25.838127 40.287403 25.848918 40.002136 25.857422 39.716797 C 25.865926 39.431443 25.871636 39.147151 25.875 38.861328 C 25.877457 38.65282 25.876774 38.443498 25.876953 38.234375 L 22.341797 37.566406 L 24.695312 33.095703 L 10.8125 31.853516 z M 27.769531 38.591797 C 27.768795 38.695964 27.768887 38.800138 27.767578 38.904297 C 27.763835 39.201141 27.757193 39.498093 27.748047 39.794922 C 27.738938 40.091766 27.727669 40.388741 27.712891 40.685547 C 27.698113 40.982353 27.680876 41.279396 27.660156 41.576172 C 27.639444 41.87294 27.614824 42.170047 27.587891 42.466797 C 27.560943 42.763528 27.531473 43.058749 27.498047 43.355469 C 27.464636 43.652199 27.426918 43.949408 27.386719 44.246094 C 27.34652 44.542787 27.303103 44.840067 27.255859 45.136719 C 27.208612 45.433374 27.158092 45.728777 27.103516 46.025391 C 27.048939 46.322008 26.989919 46.619436 26.927734 46.916016 C 26.902525 47.036356 26.874166 47.157041 26.847656 47.277344 A 14.369924 23.634744 0 0 0 34.958984 39.949219 L 27.769531 38.591797 z "
       transform="scale(0.26458333)" />
    <rect
       style="fill:#000000;stroke:none;stroke-width:0.800001;stroke-miterlimit:4;stroke-dasharray:none"
       id="rect108417"
       width="1.115548"
       height="0.68791664"
       x="-2.104975"
       y="7.6602693"
       transform="rotate(-15)" />
    <rect
       style="fill:#000000;stroke:none;stroke-width:0.800001;stroke-miterlimit:4;stroke-dasharray:none"
       id="rect109296"
       width="1.115548"
       height="0.68791664"
       x="-7.6858315"
       y="6.0927362"
       transform="rotate(-60)" />
    <rect
       style="fill:#000000;stroke:none;stroke-width:0.800001;stroke-miterlimit:4;stroke-dasharray:none"
       id="rect109298"
       width="1.115548"
       height="0.68791664"
       x="3.6338561"
       y="-5.2269511"
       transform="matrix(0.8660254,0.5,0.5,-0.8660254,0,0)" />
    <g
       id="g109309"
       transform="matrix(-0.96592583,0.25881905,0.25881905,0.96592583,10.731983,-4.3509931)">
      <rect
         style="fill:#000000;stroke:none;stroke-width:0.800001;stroke-miterlimit:4;stroke-dasharray:none"
         id="rect109300"
         width="1.115548"
         height="0.68791664"
         x="0"
         y="-7.7994361"
         transform="scale(1,-1)" />
      <rect
         style="fill:#000000;stroke:none;stroke-width:0.800001;stroke-miterlimit:4;stroke-dasharray:none"
         id="rect109302"
         width="1.115548"
         height="0.68791664"
         x="4.734273"
         y="-3.3504839"
         transform="matrix(0.70710678,0.70710678,0.70710678,-0.70710678,0,0)" />
      <rect
         style="fill:#000000;stroke:none;stroke-width:0.800001;stroke-miterlimit:4;stroke-dasharray:none"
         id="rect109304"
         width="1.115548"
         height="0.68791664"
         x="-5.8093643"
         y="7.1931534"
         transform="rotate(-45)" />
    </g>
  </g>
</svg>
