<?xml version="1.0" encoding="UTF-8" standalone="no"?>
<!-- Created with Inkscape (http://www.inkscape.org/) -->

<svg
   width="48"
   height="48"
   viewBox="0 0 12.7 12.7"
   version="1.1"
   id="svg7776"
   xmlns="http://www.w3.org/2000/svg"
   xmlns:svg="http://www.w3.org/2000/svg">
  <defs
     id="defs7773" />
  <g
     id="layer1">
    <path
       style="fill:#808080;stroke:none;stroke-width:0.0192502px;stroke-linecap:butt;stroke-linejoin:miter;stroke-opacity:1"
       d="M 6.8606869,12.538964 C 6.7265099,12.589674 6.5906675,12.499664 6.524814,12.372412 6.452205,12.23206 6.534174,12.154585 6.496931,12.000927 6.3057518,11.205184 5.4887879,10.270025 5.5118244,9.7521242 5.5372751,9.1766231 5.9745948,9.0476672 5.9734719,8.7364402 5.9716005,8.0409467 5.0006419,7.384097 4.9285756,6.9304403 4.8804814,6.6277841 5.3266153,6.2676583 5.1291674,6.0332322 4.9721597,5.8468441 4.6304294,6.1451399 4.3990537,6.0687882 4.2227709,6.0105887 4.1503864,5.7512359 3.9681153,5.7157923 3.4728206,5.619604 3.027005,6.1864597 2.5228213,6.1659495 2.3562697,6.1584641 2.2248997,5.9949066 2.0589656,5.979 1.8248577,5.9559822 1.5876245,6.190165 1.365905,6.1114928 0.77887594,5.9035652 0.26518577,5.0078916 0.16074479,4.6840329 0.05388975,4.352277 0.27602098,3.7573134 0.36524775,3.1784997 0.50204466,2.2917525 1.1143932,1.4906391 1.7792337,0.88817128 2.0635505,0.63054028 2.432846,0.33332978 2.813351,0.38260288 2.9361127,0.39944518 2.97485,0.59238308 3.0942057,0.62518818 3.703317,0.79192688 4.7404472,0.12714259 4.959135,0.29070005 5.1372891,0.42394138 4.8051215,0.75017668 4.8927015,0.95454868 5.0442822,1.3083119 6.7183881,1.4317659 6.8842848,1.1868977 6.9720519,1.0572119 6.6887457,0.81062188 6.8178513,0.72221848 7.089162,0.53639178 7.9646435,1.0149564 8.5469193,0.98580047 8.7220792,0.97644048 8.9152979,0.75096268 9.0564551,0.85499198 9.5134802,1.1917819 9.847856,2.6388911 10.38797,3.445787 c 0.240471,0.3592462 0.726858,0.7964724 0.84045,0.9877635 0.06943,0.1169604 -0.05558,0.3213136 0.05184,0.4046269 0.35251,0.2732383 1.155494,-0.3898057 1.327736,-0.1659902 0.157569,0.204952 -0.459814,1.0808265 -0.81165,1.5435781 -0.317608,0.4177639 -0.974533,0.5829495 -1.146755,1.0786932 -0.224265,0.645397 0.430003,1.8601011 0.218969,2.2317357 -0.160189,0.281865 -0.9449658,0.3809171 -1.1686128,0.8867658 -0.1126564,0.254618 0.1605633,0.596367 0.018714,0.835079 -0.1036738,0.17254 -0.3754898,0.154575 -0.538411,0.272564 -0.3128176,0.226567 -0.4732499,0.648186 -0.8196025,0.819191 -0.4519912,0.223105 -0.9929846,0.0075 -1.4990209,0.199207 z"
       id="path7905" />
  </g>
</svg>
