<?xml version="1.0" encoding="UTF-8" standalone="no"?>
<!-- Created with Inkscape (http://www.inkscape.org/) -->

<svg
   width="48"
   height="48"
   viewBox="0 0 12.7 12.7"
   version="1.1"
   id="svg4141"
   sodipodi:docname="asia.svg"
   inkscape:version="1.1.1 (c3084ef, 2021-09-22)"
   xmlns:inkscape="http://www.inkscape.org/namespaces/inkscape"
   xmlns:sodipodi="http://sodipodi.sourceforge.net/DTD/sodipodi-0.dtd"
   xmlns="http://www.w3.org/2000/svg"
   xmlns:svg="http://www.w3.org/2000/svg">
  <sodipodi:namedview
     id="namedview850"
     pagecolor="#ffffff"
     bordercolor="#666666"
     borderopacity="1.0"
     inkscape:pageshadow="2"
     inkscape:pageopacity="0.0"
     inkscape:pagecheckerboard="0"
     showgrid="false"
     inkscape:zoom="6.1101551"
     inkscape:cx="37.887745"
     inkscape:cy="10.065211"
     inkscape:window-width="1138"
     inkscape:window-height="835"
     inkscape:window-x="0"
     inkscape:window-y="25"
     inkscape:window-maximized="0"
     inkscape:current-layer="svg4141"
     inkscape:snap-global="false" />
  <defs
     id="defs4138" />
  <path
     style="fill:#808080;fill-opacity:1;stroke:none;stroke-width:0.214038px;stroke-linecap:butt;stroke-linejoin:miter;stroke-opacity:1"
     d="M 0.19926908,4.1303826 C 0.02573538,4.0505798 0.00747192,4.5353414 0.14330429,4.6696245 0.32038103,4.8446815 0.96095261,4.916992 0.98394944,4.9880564 1.0072547,5.0600747 0.42873843,5.406084 0.38175289,5.7179917 0.31964389,6.1302945 0.54307993,7.3646333 0.83796242,8.1267776 0.85396522,8.1681376 1.033601,8.1721866 1.1706018,8.2044506 1.5845162,8.3019246 1.5508801,8.48176 1.6354635,8.4688204 1.7133415,8.4569054 1.7804105,8.294269 1.8576388,8.2786912 2.0635304,8.2371602 2.3406447,8.1996572 2.3890745,8.2362682 2.4857575,8.3093552 2.3866545,8.5364614 2.4985647,8.5829873 2.6776581,8.6574425 2.8826796,8.5276704 3.059593,8.4481738 3.0968382,8.4314375 3.0525086,8.3240581 3.0819811,8.24584 3.134688,8.1059594 3.2489505,7.9624098 3.2467484,7.907797 3.2437111,7.8324721 2.8510249,7.6115816 2.7837552,7.4822936 2.736872,7.3921874 2.7284646,7.1830961 2.7175455,7.177862 2.638828,7.1401288 2.6865823,7.4019257 2.6044055,7.4625367 2.5170001,7.5270039 2.3189413,7.5189108 2.2795842,7.4880845 2.2128427,7.4358092 2.0073495,6.5529968 2.0606037,6.4479267 c 0.040446,-0.0798 0.1902837,-0.08609 0.2656965,-0.037957 0.065215,0.041624 0.08768,0.5042499 0.2339996,0.6094264 0.1037226,0.074558 0.1391896,-0.040387 0.2421075,0.035277 0.082153,0.060398 0.056695,0.1476978 0.1353383,0.2126008 0.3776832,0.3116966 1.1213027,0.1538822 1.5921595,0.1730545 0.036514,0.00149 0.1171432,0.1091207 0.2148461,0.2046168 0.1012154,0.098929 0.2177584,0.1868292 0.1467315,0.247415 -0.094914,0.080961 0.126706,0.1004367 0.1983522,0.1614234 C 5.1669259,8.1194046 5.3288113,7.8746059 5.345312,7.8895482 5.373186,7.9147902 5.386686,8.3881934 5.43876,8.6482356 5.522541,9.0666261 5.9543135,9.7672575 6.0569993,9.7691329 6.1383563,9.7705929 6.271518,9.6235256 6.3307249,9.5136543 6.3972529,9.3901967 6.3217249,9.0106986 6.4402155,8.8019682 6.5005038,8.6957681 6.606336,8.6550938 6.6982964,8.5365679 7.0600141,8.0703567 7.7102015,7.668904 7.8088437,7.6705683 c 0.1996407,0.00337 0.3798511,0.1847866 0.4810788,0.3568931 0.038701,0.0658 -0.027516,0.17672 0.029876,0.2270548 0.050304,0.044118 0.1389148,0.025606 0.2007322,0 0.087423,-0.036212 0.1508065,-0.2025869 0.2007323,-0.2007322 0.078629,0.00292 0.249617,0.561479 0.2396691,0.90299 -0.00546,0.1873063 -0.037073,0.3523291 -0.057186,0.5386323 -0.00719,0.06657 0.2349521,0.18017 0.291975,0.3102223 0.03428,0.078193 -0.022168,0.1802767 0.018253,0.2554764 0.094469,0.175751 0.4293736,0.406755 0.4744575,0.364969 0.076231,-0.07066 -0.088263,-0.190223 -0.1094915,-0.291976 C 9.5553042,10.020805 9.6044368,9.9628165 9.5410306,9.8660024 9.4739575,9.7636004 9.325622,9.7022733 9.2322186,9.6231448 9.1690892,9.5696668 9.1030774,9.5034143 9.08623,9.4224127 9.0291314,9.1478848 9.1931104,8.6160229 9.2687143,8.6012354 c 0.020962,-0.0041 0.032392,0.1224091 0.1280747,0.1238186 0.06804,10e-4 0.335909,0.1863813 0.4843966,0.2513441 0.1772234,0.077534 0.1160447,0.2328428 0.1520924,0.2369013 0.05508,0.0062 0.09172,-0.1796964 0.15593,-0.2698861 C 10.2708,8.8288005 10.465507,8.7467014 10.509604,8.6377322 10.609843,8.3900188 10.500239,8.0707987 10.345369,7.8530518 10.242564,7.7085467 9.9678196,7.5825052 9.9429042,7.5216644 9.9078854,7.4361405 10.045701,7.065834 10.103871,7.0160658 c 0.08474,-0.072501 0.535419,-0.159788 0.74224,-0.3447818 0.22011,-0.1968792 0.344229,-0.4691339 0.440878,-0.7481835 0.09806,-0.283105 0.126618,-0.5689827 0.0072,-0.8438022 -0.07606,-0.1752026 -0.413317,-0.2168941 -0.430582,-0.2954642 -0.03206,-0.1459379 0.231042,-0.3958283 0.203504,-0.436525 -0.02078,-0.030711 -0.190472,-0.050153 -0.229131,-0.026345 -0.0686,0.04225 -0.06902,0.1688048 -0.145987,0.192635 -0.07294,0.022585 -0.150674,-0.065331 -0.2388,-0.087904 -0.08948,-0.022919 -0.188871,0.018755 -0.199161,-0.058082 -0.0088,-0.065215 0.192212,-0.1103239 0.202677,-0.1607452 0.01213,-0.058466 0.0569,-0.4150718 0.111036,-0.4468859 0.04636,-0.027243 0.09417,-0.024843 0.127061,0.017692 0.06161,0.07966 0.02602,0.304782 0.08033,0.3121663 0.04994,0.00679 0.09097,-0.2207808 0.190582,-0.2331803 0.107824,-0.013421 0.187191,0.1151871 0.261861,0.1941203 0.08856,0.09362 0.165759,0.3147694 0.212655,0.3228773 0.0553,0.00957 0.230532,-0.1719616 0.231076,-0.2291914 6.98e-4,-0.073416 -0.180482,-0.2106222 -0.291282,-0.2920203 -0.09419,-0.069195 -0.275624,-0.1118406 -0.310915,-0.1620758 -0.04607,-0.065576 0.146494,-0.2675217 0.125284,-0.408294 -0.01624,-0.1078281 -0.186512,-0.161573 -0.183851,-0.2705858 0.0014,-0.054893 0.08491,-0.078533 0.09912,-0.1315748 0.03721,-0.1389752 0.0024,-0.402703 -0.05269,-0.4283809 -0.06716,-0.031325 -0.221282,0.1464998 -0.346682,0.1459862 C 10.560741,2.5969074 10.500876,2.4489272 10.295357,2.4539451 10.039921,2.4601881 9.7603857,2.2722299 9.5424442,2.2690491 9.366903,2.2664814 9.091252,2.3240221 9.0314888,2.3967878 8.9779526,2.4619731 9.1044848,2.9587296 9.0377015,3.0439633 8.9642462,3.1377058 8.3278969,3.3285622 8.0240743,3.1990852 7.9307239,3.159303 7.9246422,3.0053348 7.8327435,2.9623051 7.7091005,2.9044119 7.485277,2.9120379 7.4232151,2.9685901 7.369438,3.0175931 7.6576157,3.2401275 7.5536526,3.2924002 7.3060021,3.4169192 6.8287091,3.5056199 6.458463,3.5099379 6.1826688,3.5131543 5.9995572,2.9088431 5.9110117,2.889493 5.8227153,2.8701973 5.7497841,3.0795833 5.6089987,3.0573874 5.4739727,3.0360995 5.500005,2.8082489 5.3635605,2.8164994 4.9528704,2.8413331 4.5991858,2.8280233 4.2869058,2.9077413 4.2095096,2.9274989 4.146804,3.1337672 4.0893075,3.2533757 c -0.028315,0.058903 0.2890089,0.1365459 0.270592,0.2018169 0,0 -0.1588319,0.030246 -0.237229,0.018248 C 3.9964689,3.4541265 3.9823086,3.3496782 3.8867375,3.3289382 3.6844456,3.285039 3.4101486,3.1088751 3.2102518,3.1084737 2.928993,3.1079089 2.4688333,3.3186863 2.4255713,3.4186961 c -0.035943,0.083089 0.1840743,0.429117 0.2208099,0.5115644 0.033215,0.074548 0.1343293,-0.037106 0.1806545,-0.037106 0.09265,0 0.2413901,0.062013 0.2554774,0.1094902 0.010764,0.036278 -0.036285,0.142423 -0.091242,0.1824838 -0.064653,0.047129 -0.2295777,-0.043143 -0.237229,0.036497 -0.00979,0.101864 0.2734084,0.3295913 0.292507,0.5306678 C 3.0670641,4.9682807 3.0446791,5.2857551 2.845284,5.3712729 2.702758,5.4324002 2.5268459,5.2879869 2.4255712,5.1705405 2.3715418,5.1078835 2.336659,5.0145007 2.3525778,4.9333116 2.369212,4.8484743 2.5787783,4.7928654 2.5168132,4.7325793 2.2810096,4.5031648 2.1198362,4.3743725 1.8233748,4.2763698 c -0.098181,-0.032456 0.078594,0.2430216 0,0.3102226 C 1.6221418,4.7586532 0.46147379,4.2509619 0.19926908,4.1303826 Z"
     id="path1262"
     sodipodi:nodetypes="sssssssssssssssssssssssssssssssssssssssssssssssssssssssssssssssssssssssssssssssssssssssssssssssssssssssssssssss" />
  <path
     style="fill:#808080;fill-opacity:1;stroke:none;stroke-width:0.1618px;stroke-linecap:butt;stroke-linejoin:miter;stroke-opacity:1"
     d="m 11.891887,2.4612705 c 0.174397,0.047996 0.27613,-0.015192 0.299606,-0.027505 0.01622,-0.00851 0.0746,0.026846 0.07849,0.0458 0.0048,0.014523 -0.05059,0.061212 -0.06152,0.088043 -0.01662,0.040769 -0.01103,0.066208 -0.0054,0.1110498 0.0028,0.022324 0.07941,0.077351 0.06694,0.087531 -0.01572,0.012836 -0.340242,0.048122 -0.359803,0.030493 -0.01821,-0.01641 0.0684,-0.057364 0.06457,-0.081069 -0.0081,-0.050364 -0.115627,-0.2633557 -0.08288,-0.2543413 z"
     id="path24423"
     sodipodi:nodetypes="sscssssss" />
  <path
     style="fill:#808080;fill-opacity:1;stroke:none;stroke-width:0.228638px;stroke-linecap:butt;stroke-linejoin:miter;stroke-opacity:1"
     d="m 12.089322,2.999509 c -7.75e-4,0.015901 0.06184,0.037941 0.08064,0.066309 0.07417,0.1119979 0.116487,0.2155038 0.107515,0.3812751 -0.009,0.1657724 -0.09082,0.2189751 -0.0998,0.2852823 -0.009,0.06631 0.05375,0.1740623 0.02689,0.2155034 -0.02689,0.041445 -0.114599,0.075307 -0.159399,0.149905 -0.0448,0.074596 -0.123434,0.2466652 -0.09714,0.2665216 0.02334,0.017622 0.03106,0.00315 0.0669,-0.00514 0.03584,-0.00829 0.07156,-0.1105834 0.120042,-0.174218 0.03288,-0.043145 0.161239,-0.119126 0.17711,-0.1127407 0.01475,0.00593 8.98e-4,0.071725 0.01612,0.086422 0.01112,0.010758 0.05804,0.013464 0.08063,0 0.0223,-0.013289 0.05465,-0.1847783 0.03766,-0.2107507 -0.02032,-0.031094 -0.07519,0.01189 -0.107187,-0.0092 -0.0272,-0.017926 -0.04167,-0.051075 -0.02722,-0.065398 0.01814,-0.017982 0.112396,0.030523 0.143354,0.016577 0.04359,-0.019637 0.07217,-0.3119787 0.0896,-0.3315436 0.01956,-0.021953 0.07655,0.051171 0.09258,0.051263 0.01389,8e-5 0.0076,-0.036455 0.0059,-0.051263 C 12.631833,3.446955 12.492319,3.3800267 12.446431,3.276505 12.41287,3.2008034 12.440087,3.1052113 12.392681,3.0361358 12.352666,2.9778198 12.238107,2.9101426 12.213486,2.911804 12.180146,2.938766 12.09021,2.981358 12.089326,2.999509 Z"
     id="path29769"
     sodipodi:nodetypes="ssssssssssssssssssssscs" />
  <path
     style="fill:#808080;fill-opacity:1;stroke:none;stroke-width:0.266415px;stroke-linecap:butt;stroke-linejoin:miter;stroke-opacity:1"
     d="m 12.278925,4.1701181 c -0.0064,-0.035363 -0.122745,0.061393 -0.14568,0.1199709 -0.02312,0.059058 -0.0142,0.190671 0.02571,0.1885263 0.04122,-0.00222 0.01956,-0.1228568 0.04284,-0.1799568 0.01886,-0.046271 0.09193,-0.047168 0.07713,-0.1285404 z"
     id="path32714"
     sodipodi:nodetypes="sssss" />
  <path
     style="fill:#808080;fill-opacity:1;stroke:none;stroke-width:0.266415px;stroke-linecap:butt;stroke-linejoin:miter;stroke-opacity:1"
     d="m 11.855454,4.422657 c -0.0068,0.012769 -0.01948,0.079676 -0.0033,0.097575 0.01221,0.013524 0.04686,-0.042135 0.07739,-0.026919 0.07594,0.037853 0.0251,0.176743 0.04038,0.1951511 0.01048,0.012628 0.110519,0.015491 0.127857,-0.00673 0.01585,-0.020313 0.0064,-0.1720656 -0.02355,-0.218704 -0.0165,-0.025659 -0.0446,-0.045755 -0.07402,-0.053835 -0.04672,-0.012832 -0.129964,-0.014215 -0.144729,0.013458 z"
     id="path35034"
     sodipodi:nodetypes="ssssssss" />
</svg>
