<?xml version="1.0" encoding="UTF-8" standalone="no"?>
<!-- Created with Inkscape (http://www.inkscape.org/) -->

<svg
   width="46mm"
   height="46mm"
   viewBox="0 0 46 46"
   version="1.1"
   id="svg5"
   sodipodi:docname="beans.svg"
   inkscape:version="1.1.1 (c3084ef, 2021-09-22)"
   xmlns:inkscape="http://www.inkscape.org/namespaces/inkscape"
   xmlns:sodipodi="http://sodipodi.sourceforge.net/DTD/sodipodi-0.dtd"
   xmlns="http://www.w3.org/2000/svg"
   xmlns:svg="http://www.w3.org/2000/svg">
  <sodipodi:namedview
     id="namedview295863"
     pagecolor="#ffffff"
     bordercolor="#666666"
     borderopacity="1.0"
     inkscape:pageshadow="2"
     inkscape:pageopacity="0.0"
     inkscape:pagecheckerboard="0"
     inkscape:document-units="mm"
     showgrid="false"
     inkscape:snap-global="false"
     inkscape:zoom="3.0483079"
     inkscape:cx="88.409705"
     inkscape:cy="101.20369"
     inkscape:window-width="1296"
     inkscape:window-height="847"
     inkscape:window-x="0"
     inkscape:window-y="25"
     inkscape:window-maximized="0"
     inkscape:current-layer="svg5" />
  <defs
     id="defs2" />
  <path
     id="path299522"
     style="fill:#000000;stroke:none;stroke-width:0.999999px;stroke-linecap:butt;stroke-linejoin:miter;stroke-opacity:1"
     d="M 83.740234 21.191406 C 78.015909 21.142235 71.298481 22.774717 64.941406 26.285156 C 57.926709 30.158744 52.784934 35.527916 50.173828 40.759766 C 49.815269 41.478203 49.551225 42.178977 49.287109 42.878906 C 52.285417 41.538852 55.560777 40.589269 59.007812 40.042969 C 61.353327 39.671243 63.787676 39.473648 66.287109 39.455078 C 66.927754 39.450318 67.581609 39.483332 68.230469 39.501953 C 68.841194 38.94414 69.445521 38.400598 70.068359 37.824219 C 75.915425 32.413297 82.498619 26.322824 92.339844 22.804688 C 90.384006 21.975589 88.084003 21.44839 85.482422 21.261719 C 84.912979 21.220847 84.332407 21.196509 83.740234 21.191406 z M 125.97266 26.021484 C 124.34504 36.600856 127.2672 44.173322 130.52734 52.824219 C 133.28477 60.141123 136.27774 68.267944 135.75391 78.189453 C 137.54623 76.614981 139.14972 74.458015 140.48242 71.753906 C 143.1745 66.291612 144.51182 58.791175 143.56641 50.833984 C 142.62098 42.876798 139.58529 36.090952 135.72266 31.701172 C 132.69091 28.255671 129.32916 26.34785 125.97266 26.021484 z M 116.51367 29.732422 C 115.0077 31.230577 113.65169 33.161187 112.49805 35.501953 C 109.90038 40.772696 108.58486 47.946424 109.34375 55.591797 C 114.64345 59.986346 119.00106 64.97267 122.19141 70.248047 C 124.04546 73.313814 125.50282 76.508229 126.50391 79.738281 C 127.55525 70.797036 125.02168 63.948915 122.03711 56.029297 C 119.22753 48.574001 116.06448 40.176288 116.51367 29.732422 z M 99.34375 30.164062 C 90.907993 32.171926 85.416845 36.240185 80.029297 41.037109 C 84.824537 42.148442 89.698617 43.846584 94.517578 46.150391 C 94.542662 46.162383 94.566734 46.175484 94.591797 46.1875 C 95.870024 44.592483 96.94367 42.963303 97.751953 41.34375 C 99.802267 37.23556 100.30593 33.398022 99.34375 30.164062 z M 66.509766 47.128906 C 64.355366 47.141356 62.281535 47.305437 60.314453 47.617188 C 52.330986 48.882435 46.291404 52.4151 43.046875 57.763672 C 55.720845 69.389309 68.441546 71.925136 82.263672 74.771484 C 94.684847 77.329339 108.03558 80.167695 120.58203 90.435547 C 120.87806 85.361738 119.27405 79.787943 115.88477 74.183594 C 111.01513 66.131425 102.47566 58.328241 91.501953 53.082031 C 82.92875 48.983431 74.204048 47.084443 66.509766 47.128906 z M 101.62695 49.689453 C 101.56776 49.769843 101.49555 49.845656 101.43555 49.925781 C 101.50035 49.965747 101.56234 50.008697 101.62695 50.048828 C 101.63054 49.930179 101.62252 49.807821 101.62695 49.689453 z M 40.431641 67.464844 C 40.445417 72.19573 42.047811 77.315802 45.158203 82.458984 C 50.027837 90.511151 58.569268 98.314332 69.542969 103.56055 C 80.516673 108.80676 91.738094 110.45053 100.73047 109.02539 C 108.2767 107.82943 114.0885 104.60213 117.44336 99.734375 C 105.82217 88.900469 93.841 86.413292 80.433594 83.652344 C 67.747851 81.040009 53.827601 78.200274 40.431641 67.464844 z M 146.67773 79.919922 C 145.70866 80.006985 144.71828 80.191455 143.71484 80.451172 C 140.32313 84.741627 135.86663 87.806973 130.65234 88.660156 C 130.52106 88.681637 130.39076 88.698309 130.25977 88.716797 C 129.48545 89.484588 128.73947 90.331503 127.99805 91.185547 C 127.81694 94.218936 127.14857 97.190635 125.91797 100.01953 C 124.10824 104.17972 121.28467 107.58397 117.76562 110.23633 C 115.98275 116.60062 115.67359 122.72758 116.64648 127.81641 C 117.74491 133.56179 120.32669 137.82904 124.04492 140.20117 C 132.45683 130.20029 134.08912 120.48364 135.99023 109.66016 C 137.64896 100.21664 139.53709 89.895781 146.67773 79.919922 z M 35.916016 80.666016 C 33.502545 81.537516 31.085385 82.599621 28.708984 83.910156 C 20.381874 88.502387 14.274395 94.871005 11.160156 101.14062 C 8.5619585 106.37137 8.0372153 111.32452 9.5527344 115.45703 C 22.339885 112.58802 29.516198 105.83775 37.587891 98.363281 C 39.504674 96.58832 41.495712 94.778612 43.589844 93.003906 C 41.807407 90.867621 40.215915 88.656335 38.845703 86.390625 C 37.716293 84.523091 36.738684 82.607882 35.916016 80.666016 z M 156.18164 82.404297 C 148.39833 91.547191 146.79954 100.66718 144.96094 111.13477 C 143.26865 120.76937 141.38915 131.50651 133.95703 142.11133 C 137.0133 141.64579 140.24214 140.34415 143.49609 138.22461 C 149.62244 134.23405 155.53486 127.37112 159.38477 118.67773 C 163.23468 109.98434 164.2441 101.2189 162.92969 94.34375 C 161.8971 88.942728 159.54912 84.847189 156.18164 82.404297 z M 49.904297 99.505859 C 47.850464 101.24406 45.832877 103.08869 43.751953 105.01562 C 36.586188 111.6512 28.607267 119.05411 16.316406 123.00391 C 19.023772 124.47165 22.369827 125.38141 26.230469 125.66211 C 29.799062 125.92157 33.744522 125.59614 37.818359 124.66211 C 39.889122 120.90515 42.927698 117.50075 46.611328 114.6582 C 50.584984 111.59187 55.33748 109.09458 60.609375 107.31641 C 56.691656 104.98629 53.104331 102.35833 49.904297 99.505859 z M 71.048828 112.4707 C 63.083583 113.69806 56.063124 116.70362 51.037109 120.58203 C 47.962914 122.95429 45.670502 125.57143 44.222656 128.30273 C 56.684648 124.78658 67.44096 126.55562 77.09375 128.13672 C 87.582166 129.8547 96.718561 131.353 107.91797 127.02148 C 106.75403 123.14242 103.77844 119.66634 99.232422 116.94141 C 90.510622 117.78867 80.756051 116.33886 71.048828 112.4707 z M 59.160156 135.28125 C 54.003135 135.27369 48.673257 136.04391 42.753906 138.29297 C 43.766695 142.58528 46.944935 146.43099 52.005859 149.36328 C 58.062378 152.87242 66.667725 154.81105 76.144531 154.04492 C 85.621341 153.27879 94.051471 149.9628 99.839844 145.49609 C 103.27375 142.84626 105.73356 139.8913 107.12891 136.81445 C 95.354732 140.26484 84.989973 138.64175 75.527344 137.0918 C 69.937133 136.17613 64.646446 135.28925 59.160156 135.28125 z "
     transform="scale(0.26458333)" />
</svg>
