<?xml version="1.0" encoding="UTF-8" standalone="no"?>
<!-- Created with Inkscape (http://www.inkscape.org/) -->

<svg
   width="46"
   height="46"
   viewBox="0 0 12.170834 12.170834"
   version="1.1"
   id="svg5"
   xmlns="http://www.w3.org/2000/svg"
   xmlns:svg="http://www.w3.org/2000/svg">
  <defs
     id="defs2" />
  <g
     id="layer1">
    <path
       id="path7468"
       style="fill:#800000;stroke:none;stroke-width:0.564895;stroke-miterlimit:4;stroke-dasharray:none"
       d="M 5.8869414,0.06334358 C 5.0379348,0.24064928 4.2444692,0.76096764 3.5860883,1.5558052 2.7149157,2.6075385 2.105923,4.1288692 2.0011516,5.8529865 1.8963741,7.57711 2.3169474,9.1614432 3.0543567,10.310927 3.6589219,11.253332 4.465264,11.874004 5.3735822,12.114038 6.1585776,9.9081545 5.9154925,8.4514989 5.6252859,6.720323 5.3395104,5.0155786 5.0953437,3.0066089 5.8869414,0.06334358 Z M 7.0459417,0.10391634 C 6.2610013,2.3097245 6.5040381,3.7664895 6.794238,5.4976313 7.0800131,7.2023752 7.3247929,9.2107344 6.533195,12.153999 7.3819913,11.976578 8.1752003,11.45681 8.8334356,10.662149 9.7046099,9.6104147 10.313601,8.0886254 10.418372,6.3645083 10.523141,4.6403897 10.103191,3.0565121 9.36578,1.9070268 8.7612131,0.96462161 7.9542612,0.34395334 7.0459417,0.10391634 Z" />
  </g>
</svg>
