<?xml version="1.0" encoding="UTF-8" standalone="no"?>
<!-- Created with Inkscape (http://www.inkscape.org/) -->

<svg
   width="46mm"
   height="46mm"
   viewBox="0 0 46 46"
   version="1.1"
   id="svg5"
   xmlns="http://www.w3.org/2000/svg"
   xmlns:svg="http://www.w3.org/2000/svg">
  <defs
     id="defs2" />
  <g
     id="layer1">
    <g
       id="g3577"
       transform="translate(-3.6257717,-0.15679021)">
      <path
         id="path2216"
         style="fill:#800000;stroke:#ffffff;stroke-width:1.63053;stroke-miterlimit:4;stroke-dasharray:none"
         d="m 5.9301921,32.104174 c -1.8833886,-3.4184 0.3819388,-8.27883 5.0597489,-10.85612 4.67781,-2.57727 9.996717,-1.89537 11.880104,1.52301 -7.887698,1.47749 -7.227723,6.72413 -16.9398529,9.33311 z m 16.7362169,-9.7027 c 1.883388,3.4184 -0.381936,8.27884 -5.059749,10.85611 -4.677814,2.57728 -9.9967151,1.89539 -11.8801039,-1.52301 7.8876949,-1.47747 7.2277199,-6.72411 16.9398529,-9.3331 z" />
      <path
         id="path2216-4"
         style="fill:#800000;stroke:#ffffff;stroke-width:1.63053;stroke-miterlimit:4;stroke-dasharray:none"
         d="m 44.308382,20.610114 c 3.566634,1.58484 4.69985,6.82614 2.531101,11.70679 -2.168741,4.88067 -6.818202,7.55242 -10.384832,5.96758 5.390638,-5.9447 1.693579,-9.7255 7.853731,-17.67437 z m -7.468102,17.84573 c -3.566631,-1.58484 -4.699843,-6.82618 -2.531097,-11.70682 2.168747,-4.88065 6.818189,-7.55243 10.384831,-5.96756 -5.390653,5.94472 -1.693581,9.7255 -7.853734,17.67438 z" />
      <path
         id="path2216-9"
         style="fill:#800000;stroke:#ffffff;stroke-width:1.63053;stroke-miterlimit:4;stroke-dasharray:none"
         d="m 35.705172,5.8803838 c 3.379667,-0.45501 6.624197,2.92525 7.246877,7.5500502 0.622659,4.62483 -1.612336,8.74283 -4.992003,9.19788 1.286854,-6.89264 -3.19597,-8.01162 -2.254874,-16.7479302 z m 2.620294,16.6987302 c -3.379671,0.455 -6.624208,-2.92525 -7.24687,-7.55005 -0.622669,-4.62484 1.612323,-8.7428602 4.991993,-9.1978902 -1.286858,6.8926802 3.195968,8.0116302 2.254877,16.7479402 z" />
      <path
         id="path2216-8"
         style="fill:#800000;stroke:#ffffff;stroke-width:1.63053;stroke-miterlimit:4;stroke-dasharray:none"
         d="m 30.399268,6.7693938 c 1.445519,2.79317 -0.481222,6.6610702 -4.303489,8.6391402 -3.822277,1.97807 -8.092672,1.3173 -9.538194,-1.47589 6.38497,-1.02486 5.963309,-5.2651602 13.841683,-7.1632502 z M 16.713874,14.234664 c -1.44551,-2.79323 0.481225,-6.6611102 4.303501,-8.6391802 3.822278,-1.97809 8.09267,-1.31732 9.538181,1.47592 -6.38496,1.02483 -5.963295,5.2651102 -13.841682,7.1632602 z" />
      <path
         id="path2216-8-5"
         style="fill:#800000;stroke:#ffffff;stroke-width:1.63053;stroke-miterlimit:4;stroke-dasharray:none"
         d="m 33.430445,35.139154 c -0.1445,-3.9002 -4.588229,-6.9017 -9.925373,-6.704 -5.337149,0.19763 -9.546634,3.51981 -9.402146,7.42002 7.523292,-2.79266 9.657633,2.04544 19.327519,-0.71602 z m -19.343141,0.29429 c 0.1445,3.90023 4.588231,6.90173 9.925381,6.704 5.337146,-0.19762 9.546628,-3.51977 9.402143,-7.41997 -7.523293,2.79264 -9.657636,-2.04546 -19.327524,0.71597 z" />
      <path
         id="path2216-5"
         style="fill:#800000;stroke:#ffffff;stroke-width:1.63053;stroke-miterlimit:4;stroke-dasharray:none"
         d="m 13.755302,16.416194 c 1.951057,-4.47928 8.501692,-5.94613 14.63126,-3.27628 6.129559,2.66986 9.516914,8.4654 7.565855,12.9447 -7.491241,-6.69321 -12.189949,-2.0304 -22.197115,-9.66842 z m 22.408073,9.18412 c -1.951045,4.47928 -8.501677,5.94614 -14.63125,3.27625 -6.129559,-2.66986 -9.516911,-8.4654 -7.565856,-12.94468 7.491233,6.69322 12.18995,2.03041 22.197106,9.66843 z" />
    </g>
  </g>
</svg>
