<?xml version="1.0" encoding="UTF-8" standalone="no"?>
<!-- Created with Inkscape (http://www.inkscape.org/) -->

<svg
   width="48"
   height="48"
   viewBox="0 0 12.7 12.7"
   version="1.1"
   id="svg4141"
   xmlns="http://www.w3.org/2000/svg"
   xmlns:svg="http://www.w3.org/2000/svg">
  <defs
     id="defs4138" />
  <g
     id="layer1">
    <path
       style="fill:#808080;stroke:none;stroke-width:0.135975px;stroke-linecap:butt;stroke-linejoin:miter;stroke-opacity:1"
       d="M 8.3886102,5.733968 C 8.1104526,5.6301639 7.3342764,5.7192906 7.2949847,5.8707976 7.2158957,6.1757605 7.1622375,6.4606189 6.9795033,6.5204932 6.8381618,6.5668048 6.2850844,6.6111613 6.0817646,6.5048665 5.7532359,6.333113 5.4803906,5.9881856 5.3754458,5.3714479 5.3079747,4.9749344 5.5177042,4.5758281 5.6176541,4.3270467 5.6408856,4.269222 5.6057758,4.3614968 5.1587595,4.1623454 4.7730596,3.9905113 4.5157378,3.1036537 4.2606769,3.098353 3.8924721,3.090701 3.906287,3.1733052 3.7608198,3.2629133 3.6265268,3.345638 3.4858419,3.30355 3.2220904,3.1596471 2.9947331,3.0356009 2.8334046,2.728068 2.6055263,2.7245492 2.5508436,2.7237047 2.4490325,2.8919906 2.1451858,2.8987116 1.7557288,2.9073263 0.89749055,2.76948 0.84405315,2.7664159 c -0.1202111,-0.00689 -0.31462032,-0.024908 -0.62195259,0.031635 0.0179375,0.155425 8.9497e-4,0.7015865 0.0819776,0.8113934 0.11885937,0.1609663 0.29447805,0.3633184 0.24245694,0.548481 -0.0264381,0.1103438 -0.19535329,-0.025691 -0.16861103,0.015899 0.020085,0.031236 0.12448925,0.2486063 0.23840676,0.3652417 0.0506273,0.051835 0.0868835,0.021794 0.13492512,0.052625 0.1209334,0.077609 0.23762541,0.1779044 0.26593695,0.2715953 0.044255,0.1464536 -0.010161,0.1944657 0.020325,0.2538134 0.018708,0.036418 0.1021183,0.085887 0.1713998,0.1365569 0.2773252,0.202823 0.2231931,0.3777546 0.3987131,0.2652172 C 1.7272224,5.4421957 1.487236,5.2330835 1.1223754,4.6838907 0.96109305,4.4411262 0.66782903,3.8395695 0.59899735,3.464297 0.58464494,3.3860472 0.48863764,2.9855025 0.5137791,2.9573092 0.53691937,2.93136 0.65077555,2.9744793 0.72775245,2.9885375 1.0919736,3.0550546 1.1842778,4.1269699 1.4032655,4.4862858 1.4653509,4.5881551 1.6974418,4.7091392 1.8702254,4.857271 2.3068888,5.2316333 3.2700981,5.4752966 3.2323473,5.6619818 3.2070838,5.7869137 3.1421357,5.8482246 3.2026777,5.9729792 3.3236081,6.2221721 4.853114,7.2687334 5.580903,7.4117104 5.7423041,7.4434183 6.0858787,7.0511777 6.3719505,7.1672776 6.5126576,7.2243826 6.5328625,7.4668744 6.9951815,7.8313925 7.4728036,8.2079763 8.170789,8.5586289 8.204535,8.5352476 8.239531,8.5109996 8.239758,8.3829809 8.295099,8.392932 c 0.029232,0.00525 0.1878027,0.128112 0.2070045,0.1552533 0.021135,0.029874 -0.074054,0.041207 -0.077627,0.077627 -0.00728,0.07421 0.4303073,0.5088673 0.5159991,0.8317701 0.015406,0.058058 -0.083143,0.1110286 -0.064688,0.168191 0.017718,0.054873 0.071777,0.1286626 0.1474152,0.1454959 0.1029259,0.022906 0.1833326,0.083313 0.1889671,0.074446 0.012097,-0.019032 -0.1855131,-0.1803456 -0.1293778,-0.2587548 0.055739,-0.077859 0.2067724,-0.016927 0.284631,0.038814 0.07841,0.056136 0.06389,0.1879699 0.129378,0.2587548 0.03111,0.033628 0.129354,0.045554 0.2505277,0.1126313 0.141575,0.078371 0.3144472,0.2133734 0.4481132,0.2625644 0.211155,0.07771 0.487473,-0.0023 0.659826,0.142317 0.09631,0.08083 0.108587,0.280211 0.142316,0.359241 0,0 0.04096,-0.05822 0.08884,-0.07301 0.04788,-0.01478 0.113393,0.005 0.110602,-0.02075 -0.01253,-0.115726 -0.170276,-0.154039 -0.121819,-0.26548 0.03213,-0.07388 0.184127,-5.5e-4 0.23288,-0.06469 0.01044,-0.01373 -0.0082,-0.115032 0.02976,-0.136082 0.125894,-0.06982 0.174965,-0.121631 0.306618,-0.122674 0.160491,-0.0013 0.334611,0.106336 0.414008,0.245819 0.04267,0.07496 -0.09738,0.174679 0.04961,0.313321 0.02972,0.02803 0.02812,-0.139911 0.07478,-0.144377 0.04213,-0.004 0.04944,0.07074 0.08369,0.05703 0.08212,-0.03287 0.0801,-0.139714 0.0726,-0.212681 -0.0055,-0.0528 0.03505,-0.08518 -0.023,-0.10386 -0.128484,-0.04135 -0.07345,-0.09076 -0.171367,-0.1612 -0.08052,-0.05792 -0.227868,-0.149176 -0.320468,-0.1245036 -0.10614,0.028279 -0.168665,0.075863 -0.284223,0.037228 -0.07075,-0.023647 -0.198025,-0.00865 -0.316361,0.054963 -0.09443,0.05077 -0.179559,0.150522 -0.252034,0.1547 -0.172331,0.0099 -0.35659,-0.0276 -0.504578,-0.116442 C 10.202428,9.9196777 9.9165148,9.4786917 9.8590458,9.3799547 c -0.02009,-0.034521 0.07088,-0.190901 0.06043,-0.240601 C 9.8456168,8.7879429 9.9233075,7.9577303 9.7355833,7.7291102 9.5238513,7.4712518 8.1135866,7.4571683 7.753183,7.4101494 c 0,0 0.1925164,-0.1282304 0.1639328,-0.4492191 C 7.8817038,6.5632633 8.562694,5.7989335 8.3886102,5.733968 Z"
       id="path4235" />
  </g>
</svg>
