<?xml version="1.0" encoding="UTF-8" standalone="no"?>
<!-- Created with Inkscape (http://www.inkscape.org/) -->

<svg
   width="48"
   height="48"
   viewBox="0 0 12.7 12.7"
   version="1.1"
   id="svg98424"
   sodipodi:docname="crack.svg"
   inkscape:version="1.1.1 (c3084ef, 2021-09-22)"
   xmlns:inkscape="http://www.inkscape.org/namespaces/inkscape"
   xmlns:sodipodi="http://sodipodi.sourceforge.net/DTD/sodipodi-0.dtd"
   xmlns="http://www.w3.org/2000/svg"
   xmlns:svg="http://www.w3.org/2000/svg">
  <sodipodi:namedview
     id="namedview98426"
     pagecolor="#ffffff"
     bordercolor="#666666"
     borderopacity="1.0"
     inkscape:pageshadow="2"
     inkscape:pageopacity="0.0"
     inkscape:pagecheckerboard="0"
     inkscape:document-units="mm"
     showgrid="false"
     units="px"
     inkscape:snap-global="false"
     inkscape:zoom="0.5"
     inkscape:cx="17"
     inkscape:cy="33"
     inkscape:window-width="1312"
     inkscape:window-height="847"
     inkscape:window-x="0"
     inkscape:window-y="25"
     inkscape:window-maximized="0"
     inkscape:current-layer="layer1" />
  <defs
     id="defs98421" />
  <g
     inkscape:label="Layer 1"
     inkscape:groupmode="layer"
     id="layer1">
    <path
       id="path105260"
       style="fill:#000000;stroke:none;stroke-width:11"
       d="m 8.4798961,0.10128581 c -0.00114,0.011542 -0.00251,0.0230826 -0.00362,0.0346232 -0.00763,0.0794214 -0.014641,0.15887121 -0.020671,0.23822835 -0.00603,0.0793571 -0.011007,0.15893298 -0.015503,0.23822834 -0.0045,0.0792954 -0.00834,0.15847546 -0.011369,0.23771158 -0.00303,0.0792362 -0.00509,0.15853222 -0.00672,0.23771162 -0.00163,0.079179 -0.0028,0.1580696 -0.0031,0.2371948 -2.987e-4,0.079125 7.25e-5,0.1581214 0.00103,0.2371948 9.644e-4,0.079074 0.00249,0.1581706 0.00465,0.2371948 0.00216,0.079024 0.00498,0.1582173 0.00827,0.2371949 0.00329,0.078978 0.00702,0.1577446 0.011369,0.236678 0.00435,0.078933 0.00913,0.1577863 0.014469,0.2366781 0.00534,0.078892 0.011311,0.1578258 0.01757,0.2366779 0.00626,0.078853 0.013039,0.1578624 0.020154,0.2366783 0.00711,0.078816 0.01432,0.1573795 0.022221,0.2361613 0.0079,0.078782 0.016184,0.1579279 0.024805,0.2366779 0.00862,0.07875 0.0176,0.1574404 0.026872,0.2361613 0.018543,0.1574422 0.038689,0.3144652 0.059428,0.4718058 0.020739,0.1573408 0.042205,0.3145464 0.064596,0.4718058 0.022392,0.1572596 0.045745,0.3146078 0.069246,0.471806 0.043986,0.2942357 0.089246,0.5884958 0.1343589,0.8826334 l 1.119835,0.3901569 -0.886768,1.0180259 2.790528,1.3554729 A 3.8020423,6.2533593 0 0 0 12.215585,6.3536173 3.8020423,6.2533593 0 0 0 8.4798961,0.10128581 Z M 7.9724335,0.1462443 A 3.8020423,6.2533593 0 0 0 4.774179,4.5521768 L 8.3636242,5.8037801 C 8.3317165,5.5966775 8.2998157,5.3898802 8.2685393,5.1815957 8.2447826,5.023387 8.221517,4.8650683 8.1987763,4.7061725 8.1760356,4.547277 8.1537717,4.388264 8.1326305,4.2286824 8.1114895,4.0691009 8.0911269,3.9088755 8.0721689,3.7486084 8.0626897,3.6684749 8.0536042,3.5881013 8.0447803,3.507796 8.0359565,3.4274916 8.0275546,3.3474601 8.0194589,3.2669839 8.0113632,3.186508 8.0034995,3.1057852 7.9962047,3.0251384 7.9889096,2.9444913 7.982472,2.8635938 7.9760509,2.7827758 7.9696299,2.7019578 7.9634379,2.6214023 7.9579639,2.5404134 c -0.00547,-0.080989 -0.010532,-0.1622362 -0.014986,-0.243396 -0.00445,-0.08116 -0.00852,-0.1625822 -0.011886,-0.2439128 -0.00336,-0.081331 -0.00607,-0.1624115 -0.00827,-0.2439127 -0.0022,-0.081501 -0.00369,-0.1632745 -0.00465,-0.2449463 -9.572e-4,-0.081672 -0.00139,-0.1636207 -0.00103,-0.2454631 3.537e-4,-0.081842 0.00136,-0.1634502 0.0031,-0.245463 0.00174,-0.0820128 0.00456,-0.16431341 0.00775,-0.24649659 0.0032,-0.0821832 0.00716,-0.16414311 0.011886,-0.24649658 0.00473,-0.0823535 0.010207,-0.16500641 0.016536,-0.24753011 0.00476,-0.0620671 0.010316,-0.12438858 0.01602,-0.18655192 z M 4.6134653,6.4678221 a 3.8020423,6.2533593 0 0 0 3.800285,6.1391599 3.8020423,6.2533593 0 0 0 0.1219562,-0.0072 c 0.00547,-0.02242 0.011771,-0.04475 0.017053,-0.06718 0.017539,-0.07447 0.03404,-0.14919 0.049609,-0.223759 0.01557,-0.07457 0.030257,-0.149084 0.043925,-0.223759 0.013668,-0.07467 0.026407,-0.149493 0.038241,-0.224275 0.011834,-0.07478 0.022488,-0.149381 0.032556,-0.224276 0.010068,-0.07489 0.019536,-0.149783 0.027905,-0.224793 0.00837,-0.07501 0.016,-0.150182 0.022737,-0.225309 0.00674,-0.07513 0.012395,-0.150062 0.01757,-0.225309 0.00518,-0.07525 0.00976,-0.150973 0.013436,-0.226343 0.00368,-0.07537 0.00653,-0.150847 0.00878,-0.226343 0.00225,-0.0755 0.00376,-0.150718 0.00465,-0.226342 8.911e-4,-0.07562 0.00143,-0.151621 0.00103,-0.227377 -3.918e-4,-0.075789 -0.00147,-0.1514866 -0.0031,-0.227376 -0.00163,-0.075889 -0.00393,-0.1518669 -0.00672,-0.2278931 -0.00278,-0.076026 -0.00646,-0.1522441 -0.010335,-0.2284097 -0.00387,-0.076166 -0.00802,-0.1521018 -0.012919,-0.2284098 -0.00489,-0.076309 -0.01017,-0.1529897 -0.01602,-0.2294435 -0.00585,-0.076454 -0.012385,-0.1528416 -0.01912,-0.2294435 -0.00239,-0.027205 -0.0053,-0.054436 -0.00775,-0.081649 L 7.2623992,8.1896809 7.9843191,7.064685 Z m 4.6395102,2.2784141 c 0.00362,0.044437 0.00745,0.088871 0.010852,0.1333251 0.006,0.078568 0.011514,0.1570791 0.016537,0.2356445 0.00502,0.078565 0.00947,0.1570829 0.013436,0.2356445 0.00397,0.078561 0.0075,0.1570871 0.010335,0.2356446 0.00284,0.078557 0.00508,0.1570916 0.00672,0.2356445 0.00164,0.078553 0.00274,0.1570969 0.0031,0.2356446 3.596e-4,0.07855 -4.66e-5,0.157102 -0.00103,0.235644 -9.903e-4,0.07854 -0.00275,0.157109 -0.00517,0.235645 -0.00241,0.07854 -0.00539,0.157115 -0.0093,0.235645 -0.00391,0.07853 -0.00847,0.157122 -0.013953,0.235644 -0.00548,0.07852 -0.011994,0.157129 -0.01912,0.235645 -0.00713,0.07851 -0.014927,0.15662 -0.023771,0.235127 -0.00884,0.07851 -0.018819,0.157147 -0.029455,0.235645 -0.010636,0.0785 -0.022123,0.157155 -0.034623,0.235644 -0.012501,0.07849 -0.025868,0.156649 -0.040307,0.235128 -0.01444,0.07848 -0.030056,0.157175 -0.046509,0.235645 -0.00667,0.03184 -0.014173,0.06377 -0.021187,0.0956 A 3.8020423,6.2533593 0 0 0 11.717941,9.4355996 Z" />
    <rect
       style="fill:#000000;stroke:none;stroke-width:0.799999;stroke-miterlimit:4;stroke-dasharray:none"
       id="rect108417"
       width="1.7462499"
       height="0.68791664"
       x="0.48441517"
       y="4.9741664" />
    <rect
       style="fill:#000000;stroke:none;stroke-width:0.799999;stroke-miterlimit:4;stroke-dasharray:none"
       id="rect109737"
       width="1.7462499"
       height="0.68791664"
       x="-4.2804847"
       y="6.4799628"
       transform="rotate(-45)" />
    <rect
       style="fill:#000000;stroke:none;stroke-width:0.799999;stroke-miterlimit:4;stroke-dasharray:none"
       id="rect109739"
       width="1.7462499"
       height="0.68791664"
       x="3.2404554"
       y="0.35306123"
       transform="rotate(45)" />
  </g>
</svg>
