<?xml version="1.0" encoding="UTF-8" standalone="no"?>
<!-- Created with Inkscape (http://www.inkscape.org/) -->

<svg
   width="48"
   height="48"
   viewBox="0 0 12.7 12.7"
   version="1.1"
   id="svg98424"
   sodipodi:docname="dry.svg"
   inkscape:version="1.1.1 (c3084ef, 2021-09-22)"
   xmlns:inkscape="http://www.inkscape.org/namespaces/inkscape"
   xmlns:sodipodi="http://sodipodi.sourceforge.net/DTD/sodipodi-0.dtd"
   xmlns="http://www.w3.org/2000/svg"
   xmlns:svg="http://www.w3.org/2000/svg">
  <sodipodi:namedview
     id="namedview98426"
     pagecolor="#ffffff"
     bordercolor="#666666"
     borderopacity="1.0"
     inkscape:pageshadow="2"
     inkscape:pageopacity="0.0"
     inkscape:pagecheckerboard="0"
     inkscape:document-units="mm"
     showgrid="false"
     units="px"
     inkscape:snap-global="false"
     inkscape:zoom="6.68078"
     inkscape:cx="12.199174"
     inkscape:cy="30.909564"
     inkscape:window-width="1312"
     inkscape:window-height="847"
     inkscape:window-x="0"
     inkscape:window-y="25"
     inkscape:window-maximized="0"
     inkscape:current-layer="layer1" />
  <defs
     id="defs98421" />
  <g
     inkscape:label="Layer 1"
     inkscape:groupmode="layer"
     id="layer1">
    <path
       id="path111472"
       style="color:#000000;fill:#000000;stroke-width:3.77953;-inkscape-stroke:none"
       d="M 23.998047 0 A 23.638355 14.372119 0 0 0 22.685547 0.05078125 C 24.262013 4.1600012 23.419076 7.4611797 22.449219 11.080078 C 22.041777 12.600394 21.604505 14.195392 21.382812 15.853516 A 23.638355 14.372119 0 0 1 23.998047 15.757812 A 23.638355 14.372119 0 0 1 24.814453 15.775391 C 25.02348 14.577145 25.365615 13.327677 25.732422 11.958984 C 26.629676 8.6109929 27.618846 4.6406108 26.287109 0.091796875 A 23.638355 14.372119 0 0 0 23.998047 0 z M 18.378906 0.42382812 A 23.638355 14.372119 0 0 0 15.039062 1.0800781 C 16.120274 4.7225624 15.334896 7.7679957 14.447266 11.080078 C 13.919729 13.048514 13.345085 15.141155 13.251953 17.335938 A 23.638355 14.372119 0 0 1 16.708984 16.462891 C 16.889433 15.0554 17.293043 13.591183 17.730469 11.958984 C 18.605818 8.692727 19.568706 4.8339331 18.378906 0.42382812 z M 30.908203 0.66015625 C 32.181109 4.490014 31.37261 7.6418489 30.451172 11.080078 C 30.020168 12.688316 29.554948 14.378791 29.347656 16.140625 A 23.638355 14.372119 0 0 1 32.673828 16.767578 C 32.833226 15.266667 33.265333 13.709156 33.734375 11.958984 C 34.532469 8.9809969 35.401878 5.5097227 34.648438 1.578125 A 23.638355 14.372119 0 0 0 30.908203 0.66015625 z M 10.789062 2.4863281 A 23.638355 14.372119 0 0 0 7.5527344 4.0585938 C 7.6690128 6.4737161 7.0868306 8.7081987 6.4511719 11.080078 C 5.630088 14.143849 4.6892378 17.507366 5.6328125 21.091797 A 23.638355 14.372119 0 0 1 8.6953125 19.181641 C 8.3760004 16.900538 9.0127754 14.658829 9.7363281 11.958984 C 10.472405 9.2124046 11.262231 6.0459566 10.789062 2.4863281 z M 39.521484 3.5839844 C 39.745411 6.182706 39.130141 8.5539016 38.453125 11.080078 C 37.853589 13.317171 37.189387 15.714413 37.242188 18.240234 A 23.638355 14.372119 0 0 1 40.875 20.087891 C 40.210669 17.484476 40.917292 15.015108 41.736328 11.958984 C 42.235084 10.097939 42.761506 8.044284 42.902344 5.8066406 A 23.638355 14.372119 0 0 0 39.521484 3.5839844 z "
       transform="scale(0.26458333)" />
    <path
       id="path105260"
       style="fill:#000000;stroke:none;stroke-width:11"
       d="M 0.1411631,9.3384513 A 6.2543147,3.8026232 0 0 0 6.3494846,12.7 6.2543147,3.8026232 0 0 0 12.603802,8.8970674 6.2543147,3.8026232 0 0 0 12.596502,8.7750927 c -0.02242,-0.00548 -0.04476,-0.011771 -0.06719,-0.017056 -0.07449,-0.017542 -0.149213,-0.034046 -0.223793,-0.049616 -0.07458,-0.015573 -0.149107,-0.030261 -0.223794,-0.043931 -0.07468,-0.013671 -0.149514,-0.026411 -0.224308,-0.038247 -0.0748,-0.011842 -0.149404,-0.022491 -0.224311,-0.032561 -0.0749,-0.010068 -0.149807,-0.01954 -0.224828,-0.027909 -0.07503,-0.00837 -0.150204,-0.016002 -0.225342,-0.022741 -0.07513,-0.00674 -0.150085,-0.012395 -0.225344,-0.017573 -0.07526,-0.00519 -0.150996,-0.00976 -0.226377,-0.013436 -0.07539,-0.00368 -0.15087,-0.00653 -0.226377,-0.00878 -0.07551,-0.00225 -0.150742,-0.00376 -0.226376,-0.00465 -0.07564,-8.912e-4 -0.151645,-0.00143 -0.227412,-0.00103 -0.075802,3.92e-4 -0.1515438,0.00145 -0.2274445,0.00309 -0.075896,0.00164 -0.1518905,0.00392 -0.2279282,0.00672 -0.076037,0.00279 -0.1522675,0.00646 -0.2284445,0.010326 -0.076165,0.00386 -0.1521135,0.00802 -0.2284334,0.012909 -0.076318,0.00489 -0.153012,0.010173 -0.2294794,0.016022 -0.07647,0.00585 -0.1528645,0.012382 -0.229477,0.019123 -0.07661,0.00673 -0.1532309,0.013636 -0.2299955,0.021192 -0.076723,0.00757 -0.1535517,0.015482 -0.2304701,0.023789 -0.076918,0.00831 -0.1539541,0.01737 -0.231029,0.026359 -0.1541497,0.017979 -0.3082985,0.037062 -0.4630915,0.05737 -0.154793,0.020308 -0.3102171,0.041476 -0.4656758,0.063572 -0.1554586,0.022094 -0.3110794,0.044884 -0.4672261,0.068223 -0.1561471,0.02334 -0.312953,0.047282 -0.4698107,0.071324 -0.3137151,0.048085 -0.6288402,0.097195 -0.9453064,0.144716 -0.158233,0.02376 -0.3165758,0.04703 -0.4754958,0.069773 -0.1589198,0.022744 -0.3179571,0.045012 -0.4775631,0.066156 -0.1596059,0.021144 -0.3198557,0.041509 -0.4801472,0.06047 -0.080146,0.00948 -0.1605319,0.018567 -0.2408494,0.027393 -0.080317,0.00883 -0.1603606,0.017228 -0.2408488,0.025326 -0.080488,0.0081 -0.1612234,0.015962 -0.2418824,0.023258 -0.08066,0.00729 -0.1615693,0.01374 -0.2423997,0.020157 -0.08083,0.00642 -0.1613981,0.012618 -0.2423993,0.01809 -0.081002,0.00548 -0.1622611,0.010536 -0.2434333,0.014988 -0.081172,0.00445 -0.162607,0.00852 -0.2439501,0.011883 -0.081343,0.00336 -0.1624363,0.00608 -0.2439499,0.00828 -0.081513,0.0022 -0.1632994,0.00369 -0.2449837,0.00465 -0.081684,9.573e-4 -0.1636457,0.00138 -0.2455006,0.00103 -0.081851,-3.57e-4 -0.1634712,-0.00136 -0.2454964,-0.00311 -0.0820247,-0.00174 -0.16433865,-0.00457 -0.24653446,-0.00775 -0.0821536,-0.0032 -0.16412613,-0.00715 -0.24649216,-0.011878 C 0.49294508,9.3662841 0.41027994,9.3608053 0.32774369,9.3544753 0.26566766,9.3497223 0.2033356,9.3441615 0.1411631,9.3384513 Z M 12.505603,8.241193 A 6.2543147,3.8026232 0 0 0 6.3494846,5.0946518 6.2543147,3.8026232 0 0 0 0.09619781,8.8309114 c 0.0115547,0.00114 0.0230861,0.00251 0.0346279,0.00362 0.0794339,0.00762 0.15889557,0.014643 0.23826474,0.020673 0.0793695,0.00603 0.15895726,0.011005 0.23826473,0.015506 0.0793075,0.00451 0.15849975,0.00835 0.23774799,0.011368 0.0792478,0.00303 0.15855653,0.00509 0.23774793,0.00672 0.07919,0.00164 0.1580938,0.0028 0.2372311,0.0031 0.079137,2.986e-4 0.1581455,-6.91e-5 0.2372311,-0.00103 0.079085,-9.646e-4 0.1581947,-0.00249 0.237231,-0.00465 0.079036,-0.00217 0.1582413,-0.00498 0.2372312,-0.00828 0.07899,-0.00329 0.1577687,-0.00701 0.236714,-0.011367 0.078946,-0.00436 0.1578105,-0.00914 0.2367143,-0.014472 0.078904,-0.00534 0.1578496,-0.011309 0.236714,-0.017573 0.078865,-0.00626 0.1578866,-0.013047 0.2367145,-0.020158 0.078828,-0.00712 0.1574036,-0.014322 0.2361974,-0.022224 0.078795,-0.0079 0.157952,-0.016187 0.2367141,-0.024808 0.078762,-0.00863 0.1574644,-0.017603 0.2361973,-0.026876 C 3.8452073,8.7219154 4.0022544,8.7017654 4.159619,8.6810244 4.3169838,8.6602834 4.4742134,8.6388144 4.631497,8.6164184 4.7887805,8.5940234 4.9461527,8.5706664 5.103375,8.5471614 5.4178193,8.5001544 5.7322938,8.4516574 6.0466139,8.403479 6.203774,8.379391 6.3608048,8.355187 6.5179749,8.331638 6.6751449,8.308089 6.8326768,8.285317 6.9898529,8.262897 7.1470288,8.240477 7.3040358,8.218475 7.461214,8.197776 7.6183919,8.177075 7.7753988,8.157765 7.9325748,8.139372 8.0111628,8.130172 8.0896686,8.121005 8.1682556,8.112496 8.2468436,8.103986 8.3258675,8.095953 8.4044528,8.088205 8.4830378,8.080455 8.5615506,8.072895 8.6401334,8.06598 8.7187224,8.05907 8.7972347,8.052864 8.875814,8.046857 8.954391,8.040847 9.0329164,8.035337 9.1114945,8.030319 9.1900715,8.025299 9.2686004,8.020849 9.347175,8.016883 c 0.078576,-0.00397 0.1571112,-0.0075 0.23568,-0.010326 0.078577,-0.00284 0.1571153,-0.00507 0.2356805,-0.00672 0.078565,-0.00164 0.1571212,-0.00275 0.2356815,-0.0031 0.07857,-3.598e-4 0.157125,4.29e-5 0.235679,0.00103 0.07855,9.907e-4 0.157133,0.00275 0.23568,0.00517 0.07855,0.00241 0.157139,0.0054 0.235681,0.00931 0.07853,0.00391 0.157146,0.00848 0.235679,0.013955 0.07854,0.00548 0.157155,0.011994 0.235682,0.019123 0.07852,0.00713 0.156645,0.014929 0.235163,0.023774 0.07852,0.00885 0.157172,0.018822 0.235681,0.02946 0.07851,0.01063 0.157179,0.022126 0.23568,0.034628 0.07851,0.012506 0.156673,0.025872 0.235164,0.040314 0.0785,0.014443 0.157199,0.030061 0.235681,0.046516 0.03186,0.00667 0.06378,0.014175 0.09562,0.02119 z" />
  </g>
</svg>
