<?xml version="1.0" encoding="UTF-8" standalone="no"?>
<!-- Created with Inkscape (http://www.inkscape.org/) -->

<svg
   width="48"
   height="48"
   viewBox="0 0 12.7 12.7"
   version="1.1"
   id="svg4141"
   xmlns="http://www.w3.org/2000/svg"
   xmlns:svg="http://www.w3.org/2000/svg">
  <defs
     id="defs4138" />
  <path
     id="path38423"
     style="opacity:1;fill:#808080;fill-opacity:1;stroke:none;stroke-width:2.35143px;stroke-linecap:butt;stroke-linejoin:miter;stroke-opacity:1"
     d="M 18.181641 12.623047 C 18.173503 12.623351 18.165172 12.623422 18.15625 12.625 C 17.74007 12.698579 16.970386 14.438643 15.416016 15.294922 C 14.951934 15.550571 14.912587 16.061953 14.632812 16.400391 C 13.702237 17.525956 12.498924 17.626538 12.425781 17.876953 C 12.280738 18.373538 12.386433 19.377147 11.869141 19.378906 C 11.251014 19.381008 11.02397 19.193552 10.755859 19.191406 C 10.567488 19.189904 10.213305 20.123768 10.277344 20.623047 C 10.355565 21.232726 11.823515 22.61051 11.949219 23.130859 C 12.098733 23.749776 11.551271 24.543978 11.949219 25.041016 C 11.987301 25.088679 12.354603 25.211823 12.615234 25.166016 C 13.260442 25.052656 13.278419 25.837858 13.695312 25.935547 C 14.205099 26.05501 14.366982 25.70304 14.857422 25.888672 C 15.22791 26.028832 15.055306 26.582065 15.419922 26.658203 C 16.271245 26.835977 17.125669 26.542394 17.320312 26.353516 C 17.558139 26.122723 17.460777 23.913959 17.697266 22.958984 C 17.886609 22.194246 18.400997 22.749818 18.650391 21.935547 C 18.883969 21.172894 18.817463 20.30001 19.351562 19.908203 C 19.640371 19.696361 20.15389 20.14134 20.425781 19.908203 C 20.541759 19.808723 18.969403 18.659706 18.8125 18.294922 C 18.623331 17.855169 19.246024 18.147019 19.029297 17.826172 C 18.743046 17.402261 18.378803 16.520813 18.630859 16.34375 C 18.833048 16.201731 18.171763 15.901787 18.171875 15.814453 C 18.172189 15.584401 19.546175 15.698659 19.177734 15.302734 C 18.508539 14.58363 19.169678 14.458532 19.619141 14.425781 C 19.88376 14.406468 20.076465 14.384292 20.066406 14.296875 C 20.014675 13.847909 19.114737 13.808614 18.685547 13.478516 C 18.322979 13.199654 18.433911 12.613613 18.181641 12.623047 z M 30.535156 18.583984 C 30.338261 18.597102 29.660987 19.227701 29.185547 19.441406 C 28.671993 19.67225 27.061469 19.524371 26.021484 19.347656 C 25.50636 19.26013 24.999716 18.651693 24.527344 18.875 C 24.333582 18.966589 24.440557 19.319168 24.289062 19.470703 C 24.137512 19.62224 23.840709 19.557243 23.691406 19.710938 C 23.171923 20.245611 23.576104 21.338261 23.402344 21.646484 C 23.30462 21.819806 23.031235 21.835207 22.925781 22.003906 C 22.587737 22.544493 22.709375 23.358409 22.289062 23.837891 C 22.12315 24.027177 22.000607 23.921229 21.847656 24.121094 C 21.531234 24.534543 21.44081 25.268606 21.757812 25.681641 C 21.850997 25.803081 22.842791 25.566097 23.173828 25.912109 C 23.295502 26.039309 22.773256 28.623607 22.943359 28.835938 C 23.060268 28.981853 23.878778 28.879007 24.017578 28.716797 C 24.184187 28.521758 24.023367 25.591643 24.128906 25.419922 C 24.329406 25.093151 24.908484 24.825555 25.21875 25.050781 C 25.556451 25.295868 25.042483 25.918325 25.205078 26.302734 C 25.387557 26.735016 26.153407 26.80764 26.224609 27.271484 C 26.249592 27.433796 25.92064 27.552674 25.986328 27.703125 C 26.085216 27.929613 26.488419 27.996143 26.707031 27.880859 C 27.007757 27.72227 26.809188 27.150381 27.064453 26.925781 C 27.194847 26.811023 27.511688 26.969625 27.572266 26.806641 C 27.718765 26.413197 26.866191 26.20362 26.832031 25.785156 C 26.817537 25.607787 27.094591 25.485145 27.072266 25.308594 C 27.013841 24.846195 25.63311 23.590449 25.685547 23.318359 C 25.72971 23.0878 27.738074 22.022173 27.582031 21.863281 C 27.392804 21.670591 25.914861 22.24402 25.087891 22.123047 C 24.576022 22.048169 23.877659 21.994919 23.65625 21.527344 C 23.422901 21.034532 23.655738 20.235335 24.126953 19.960938 C 24.461281 19.766259 29.003187 20.212792 29.314453 20.072266 C 29.561405 19.960782 30.883716 19.103895 30.859375 18.826172 C 30.847748 18.696086 30.681501 18.605726 30.552734 18.583984 C 30.547406 18.583085 30.541508 18.583561 30.535156 18.583984 z M 35.197266 18.890625 C 34.933381 18.904244 33.592374 19.999928 33.554688 20.152344 C 33.506703 20.345799 34.000714 22.489942 34.158203 22.476562 C 34.343465 22.460751 34.172225 22.103358 34.158203 21.917969 C 34.1193 21.402323 33.594997 20.782232 33.925781 20.384766 C 34.233166 20.01543 35.275028 20.809511 35.367188 20.337891 C 35.425722 20.038337 34.568781 20.269643 34.53125 19.966797 C 34.497173 19.693061 35.050831 19.697947 35.181641 19.455078 C 35.270259 19.290813 35.385555 18.997224 35.228516 18.896484 C 35.221031 18.891682 35.210244 18.889955 35.197266 18.890625 z M 0 19.230469 L 0 23.962891 C 0.36722991 24.462871 0.72646644 24.942123 0.99609375 25.228516 C 3.4240374 27.80744 5.1843593 29.053725 5.4492188 29.134766 C 5.8068583 29.244172 7.0693422 29.033928 7.4003906 28.744141 C 7.6930111 28.487948 7.4983656 25.587342 7.2714844 25.216797 C 7.2033856 25.105588 6.4813938 24.823577 6.2089844 24.722656 C 6.0895471 24.678417 5.9375625 25.127125 5.8085938 25.074219 C 5.6801881 25.021373 6.0730683 24.661823 5.953125 24.59375 C 5.8725152 24.548052 5.79461 24.49859 5.7246094 24.443359 C 5.3963306 24.185315 5.3937012 23.551133 5.2421875 23.542969 C 4.9436577 23.526637 4.0656265 23.3657 3.8535156 23.214844 C 3.5590499 23.005394 3.5658708 22.587652 3.40625 22.414062 C 3.1497452 22.135136 4.1495016 22.047366 4.0195312 21.691406 C 3.9953171 21.625108 3.9573829 21.585263 3.359375 21.257812 C 3.2850952 21.217146 2.7667226 21.567735 2.6289062 21.486328 C 2.5015686 21.411105 3.2298994 21.127777 3.1015625 21.052734 C 2.3940726 20.639161 1.0967221 19.89681 0 19.230469 z M 38.546875 21.535156 C 38.365515 21.53898 38.188685 21.570176 38.023438 21.634766 C 37.823803 21.71282 37.794796 22.028632 37.599609 22.117188 C 37.471053 22.175497 37.287966 22.031555 37.175781 22.117188 C 36.993064 22.256712 36.879508 22.583934 36.994141 22.783203 C 37.150178 23.054517 37.830911 22.934179 37.902344 23.025391 C 37.998306 23.147938 37.66861 23.741706 37.902344 23.933594 C 38.109953 24.103982 40.398923 24.05355 40.501953 23.873047 C 40.754955 23.42972 41.053385 22.765504 40.744141 22.359375 C 40.633552 22.214098 40.365729 22.377919 40.201172 22.298828 C 39.995566 22.200001 39.922543 21.914831 39.716797 21.816406 C 39.364648 21.648015 38.945867 21.526744 38.546875 21.535156 z M 33.462891 22.382812 C 33.231869 22.407813 32.833754 22.840257 33.042969 22.941406 C 33.209287 23.021804 34.024527 23.051281 34.158203 22.941406 C 34.301175 22.823921 33.597645 22.368222 33.462891 22.382812 z M 29.771484 22.583984 C 29.680321 22.586033 29.607906 22.596013 29.558594 22.615234 C 29.313618 22.71075 28.889778 22.93513 29 23.173828 C 29.051738 23.286549 29.574098 23.265945 30.160156 23.267578 C 30.954688 23.269758 31.86571 23.254142 31.880859 23.126953 C 31.903245 22.936813 30.409626 22.569645 29.771484 22.583984 z M 44.056641 23.751953 C 43.748369 23.800632 42.817856 25.760064 41.833984 25.748047 C 41.47564 25.743576 40.555461 24.548091 40.382812 24.416016 C 40.183481 24.263531 38.162712 24.275043 38.083984 24.416016 C 37.958803 24.639959 38.783493 26.270115 39.050781 26.291016 C 39.203474 26.302874 39.084605 25.910387 39.232422 25.869141 C 39.482861 25.79895 44.199907 27.661035 44.373047 27.863281 C 44.858142 28.429951 45.203849 29.241815 45.099609 29.980469 C 45.030822 30.467843 44.122996 31.068402 44.251953 31.191406 C 44.419375 31.351039 45.179256 30.713242 45.644531 30.828125 C 45.888333 30.88832 46.371707 31.307962 46.550781 31.433594 C 46.738439 31.565254 47.625428 31.683812 47.882812 31.552734 C 47.946856 31.520109 47.974817 31.359349 48 31.169922 L 48 25.078125 C 47.69654 24.997513 47.387671 24.916387 47.15625 24.839844 C 46.120996 24.497447 45.161567 23.800762 44.072266 23.751953 C 44.067689 23.751748 44.061534 23.75118 44.056641 23.751953 z M 35.421875 24.9375 C 34.817884 24.946737 33.95438 25.118121 33.833984 25.21875 C 33.713988 25.319089 33.723148 25.581176 33.837891 25.6875 C 34.031372 25.866725 35.116249 25.441981 35.744141 25.548828 C 36.1272 25.613999 36.691324 26.071514 36.8125 26.013672 C 37.055395 25.897693 36.76088 25.278622 36.669922 25.21875 C 36.362004 25.016734 35.967427 24.957591 35.599609 24.939453 C 35.5438 24.936675 35.484357 24.936544 35.421875 24.9375 z M 31.902344 25.072266 C 31.669939 25.076707 31.460626 25.10364 31.416016 25.171875 C 31.314044 25.327849 31.88557 25.998647 32.021484 26.054688 C 32.157404 26.110495 32.80183 25.909112 32.904297 25.730469 C 33.006786 25.551882 32.776733 25.17371 32.625 25.125 C 32.53962 25.097545 32.20115 25.066555 31.902344 25.072266 z M 41.142578 27.800781 C 40.912778 27.802292 40.870559 28.183493 40.845703 28.433594 C 40.820002 28.693667 40.963796 29.336334 41.15625 29.333984 C 41.31979 29.332005 41.247258 28.998592 41.404297 28.525391 C 41.495572 28.250244 41.464563 27.847002 41.177734 27.804688 C 41.165501 27.802872 41.15388 27.800707 41.142578 27.800781 z M 8.4042969 29.421875 C 7.9124725 29.425474 7.477823 29.464803 7.4121094 29.537109 C 7.2642769 29.69995 6.9307604 30.655007 7.2929688 30.96875 C 7.3532786 31.021085 8.4175497 31.260092 9.8183594 31.40625 C 10.384541 31.465298 10.787145 31.211638 11.425781 31.265625 C 12.503196 31.35653 13.065512 31.642725 14.072266 31.759766 C 14.797282 31.844057 15.748032 31.669489 16.375 31.683594 C 17.058473 31.699165 17.388238 31.897925 17.419922 31.867188 C 17.55004 31.740836 17.602836 31.540022 17.595703 31.335938 C 17.629424 31.460657 18.199384 31.397041 18.316406 31.679688 C 18.393776 31.866506 18.921848 31.67394 18.964844 31.527344 C 19.028355 31.311438 18.54139 31.122336 18.349609 31.240234 C 18.089787 31.399844 17.619901 31.16895 17.59375 31.314453 C 17.583133 31.122452 17.521107 30.930157 17.419922 30.792969 C 17.313769 30.649048 16.470851 30.818762 16.041016 30.734375 C 15.853301 30.697897 15.842731 30.465991 15.841797 30.384766 C 15.838809 30.128977 16.474207 30.254708 16.486328 30.009766 C 16.502038 29.694444 13.211707 29.617859 13.087891 29.839844 C 12.983513 30.027004 13.01437 30.066099 12.904297 30.25 C 12.79898 30.425973 10.517328 30.130487 10.326172 30.035156 C 10.148112 29.946343 10.081853 29.697644 9.9199219 29.582031 C 9.7639975 29.47068 9.0366425 29.417248 8.4042969 29.421875 z M 24.214844 31.025391 C 24.207931 31.025749 24.20131 31.02777 24.195312 31.029297 C 23.807852 31.127935 23.087676 31.348834 23.21875 31.726562 C 23.311534 31.994025 24.765848 31.907876 25.542969 31.912109 C 25.993329 31.91458 26.76673 31.964223 26.890625 31.818359 C 26.950791 31.747542 26.967074 31.59198 26.890625 31.539062 C 26.744827 31.438088 25.986361 31.711801 25.542969 31.632812 C 25.073397 31.549178 24.429147 31.014284 24.214844 31.025391 z M 19.458984 31.183594 C 19.327931 31.198988 19.226285 31.310701 19.189453 31.453125 C 19.148007 31.61373 19.181616 31.839964 19.34375 31.875 C 19.529608 31.915029 19.649313 31.745609 19.683594 31.558594 C 19.710855 31.409858 19.702232 31.222524 19.554688 31.189453 C 19.521585 31.181993 19.489228 31.180041 19.458984 31.183594 z M 21.238281 31.347656 C 21.165774 31.351339 21.094385 31.36812 21.025391 31.402344 C 20.773165 31.527441 21.28683 31.571467 21.703125 31.855469 C 21.919009 32.002696 22.388963 31.850566 22.396484 31.658203 C 22.402996 31.49472 22.312083 31.685278 21.847656 31.503906 C 21.649335 31.426384 21.438741 31.337474 21.238281 31.347656 z M 20.076172 31.441406 C 19.8922 31.446872 19.726479 31.518255 19.691406 31.691406 C 19.639208 31.94987 20.042004 32.015291 20.302734 32.054688 C 20.561115 32.093841 21.211211 31.983379 21.21875 31.791016 C 21.225261 31.627543 20.888255 31.685278 20.423828 31.503906 C 20.318344 31.462715 20.194103 31.437902 20.076172 31.441406 z M 33.964844 32.474609 C 33.631715 32.47709 33.091227 32.529367 32.474609 32.570312 C 31.618037 32.627221 30.552998 32.64616 30.472656 32.6875 C 30.350521 32.7499 30.398759 32.965062 30.298828 33.058594 C 29.751842 33.570587 28.711191 33.324564 28.205078 33.876953 C 27.856047 34.257912 27.595597 35.246551 27.769531 35.363281 C 27.956675 35.48889 29.458396 34.72771 29.6875 34.546875 C 29.947418 34.341724 29.86735 33.862224 30.125 33.654297 C 30.438039 33.401665 34.408864 32.75851 34.310547 32.537109 C 34.289304 32.489285 34.164721 32.473121 33.964844 32.474609 z M 22.583984 32.605469 C 22.376856 32.609632 22.211258 32.640016 22.150391 32.701172 C 22.032676 32.819411 22.200256 33.068885 22.335938 33.166016 C 22.575605 33.337854 22.963832 33.064885 23.21875 33.212891 C 23.441746 33.342375 23.412788 33.735364 23.636719 33.863281 C 23.986766 34.063426 24.751525 34.153834 24.845703 33.910156 C 24.926247 33.701732 24.175406 33.010291 23.683594 32.794922 C 23.390349 32.666517 22.929199 32.598529 22.583984 32.605469 z "
     transform="scale(0.26458333)" />
</svg>
