<?xml version="1.0" encoding="UTF-8" standalone="no"?>
<!-- Created with Inkscape (http://www.inkscape.org/) -->

<svg
   width="48"
   height="48"
   viewBox="0 0 12.7 12.7"
   version="1.1"
   id="svg2663"
   xmlns="http://www.w3.org/2000/svg"
   xmlns:svg="http://www.w3.org/2000/svg">
  <defs
     id="defs2660" />
  <g
     id="layer1">
    <path
       style="fill:#808080;stroke:none;stroke-width:0.264583px;stroke-linecap:butt;stroke-linejoin:miter;stroke-opacity:1"
       d="M 4.4979166,12.600781 C 4.1527498,12.430283 3.8881462,12.537865 3.538802,11.873177 3.1894578,11.208489 3.693775,6.6451511 3.6710937,5.8869791 3.655333,5.3601421 3.4135019,5.3887135 2.9434896,5.1593749 2.7111513,5.0460074 2.5050923,4.5416656 2.1834019,4.1710425 1.8543238,3.791908 1.6434352,3.7765324 1.6205729,3.538802 1.5753615,3.0686783 1.970161,2.7660509 2.1166667,1.7859375 2.2631724,0.80582411 2.4769037,0.77427048 3.3734375,0.62838541 4.2699713,0.48250033 4.4450797,0.55439919 5.1924478,0.76067707 5.9398159,0.96695495 7.3679431,1.2543912 7.4414062,1.5213542 7.5148692,1.7883171 7.629194,2.0187478 8.2351561,2.2820312 8.8411181,2.5453145 9.8984938,2.6934007 9.9880211,3.1749999 10.077548,3.6565991 10.09038,3.6736692 9.9218753,3.935677 9.7533702,4.1976848 9.5317477,4.4690229 9.2604165,4.8617186 8.9890852,5.2544144 8.8000187,6.2465252 8.5658853,6.5153645 8.3317519,6.7842038 8.2856691,6.4938626 7.6067707,6.9453124 6.9278723,7.3967622 6.7684512,7.6579218 6.7468749,8.0036457 6.7252985,8.3493695 6.5663678,8.4347613 6.2177082,8.9296874 5.8690487,9.4246134 5.7361333,9.7238634 5.4239583,9.7895832 5.1117832,9.8553034 4.9817804,10.013248 4.6632811,10.417968 c -0.3184993,0.40472 -0.3369696,1.018101 -0.3968749,1.35599 -0.059905,0.337889 0.5766772,0.99732 0.2315104,0.826823 z"
       id="path2952" />
  </g>
</svg>
